<?xml version="1.0" encoding="utf-8"?>
<!-- Generator: Adobe Illustrator 23.1.0, SVG Export Plug-In . SVG Version: 6.00 Build 0)  -->
<svg version="1.1" id="Ebene_1" xmlns="http://www.w3.org/2000/svg" xmlns:xlink="http://www.w3.org/1999/xlink" x="0px" y="0px"
	 viewBox="0 0 1700.79 907.09" style="enable-background:new 0 0 1700.79 907.09;" xml:space="preserve">
<style type="text/css">
	.st0{fill:#FFFFFF;}
	.st1{display:none;}
	.st2{display:inline;}
</style>
<g id="PFAD">
	<g id="Willkommenstext">
		<g>
			<path class="st0" d="M257.15,377.33c0,12.16-6.32,20.47-19.82,20.47h-12.4v-40.94h12.4
				C250.77,356.87,257.15,365.17,257.15,377.33z M252.06,377.22c0-8.07-2.81-16.14-15.38-16.14h-6.9v32.52h6.9
				C248.9,393.59,252.06,385.7,252.06,377.22z"/>
			<path class="st0" d="M265.04,358.15h5.38v5.15h-5.38V358.15z M265.45,397.8v-29.24h4.56v29.24H265.45z"/>
			<path class="st0" d="M303.82,388.45c-0.58,5.26-4.68,9.94-12.46,9.94c-9.24,0-14.09-6.9-14.09-15.2
				c0-8.36,4.85-15.15,13.57-15.15c8.25,0,12.87,5.96,12.87,15.32v0.99h-21.81c0.35,6.26,4.04,10.29,9.59,10.29
				c4.39,0,7.31-2.46,8.07-6.2H303.82z M281.94,380.9h17.25c-0.41-5.15-2.75-9.18-8.25-9.18S282.59,375.64,281.94,380.9z"/>
			<path class="st0" d="M322.12,394.76c3.51,0,5.73-1.23,5.73-4.15c0-3.86-4.5-4.44-8.71-5.56c-5.61-1.52-9.18-3.8-9.18-8.71
				c0-5.15,4.39-8.3,11.11-8.3c6.32,0,11.64,2.75,12.46,10.64h-4.21c-0.35-5.03-4.04-6.96-8.36-6.96c-4.68,0-6.67,2.16-6.67,4.56
				c0,3.22,2.4,4.27,7.66,5.61c5.03,1.23,10.41,3.1,10.41,8.71c0,5.38-4.74,7.78-10.41,7.78c-6.49,0-10.76-3.33-11.17-9.42h4.27
				C315.34,392.77,317.85,394.76,322.12,394.76z"/>
			<path class="st0" d="M365.75,388.45c-0.58,5.26-4.68,9.94-12.46,9.94c-9.24,0-14.09-6.9-14.09-15.2
				c0-8.36,4.85-15.15,13.57-15.15c8.25,0,12.87,5.96,12.87,15.32v0.99h-21.81c0.35,6.26,4.04,10.29,9.59,10.29
				c4.39,0,7.31-2.46,8.07-6.2H365.75z M343.88,380.9h17.25c-0.41-5.15-2.75-9.18-8.25-9.18S344.52,375.64,343.88,380.9z"/>
			<path class="st0" d="M412.53,387.28h-17.84l-3.74,10.53h-5.09l14.91-40.94h5.67l14.91,40.94h-5.09L412.53,387.28z M411.01,383.12
				l-7.43-20.82l-7.43,20.82H411.01z"/>
			<path class="st0" d="M451.54,368.56v29.24h-4.56v-9.18c-1.75,5.38-5.03,9.77-11.23,9.77c-5.67,0-9.06-3.57-9.06-11.17v-18.66
				h4.56v17.02c0,6.14,1.64,9.01,5.61,9.01c5.15,0,10.12-6.32,10.12-17.02v-9.01H451.54z"/>
			<path class="st0" d="M471.01,394.76c3.51,0,5.73-1.23,5.73-4.15c0-3.86-4.5-4.44-8.71-5.56c-5.61-1.52-9.18-3.8-9.18-8.71
				c0-5.15,4.39-8.3,11.11-8.3c6.32,0,11.64,2.75,12.46,10.64h-4.21c-0.35-5.03-4.04-6.96-8.36-6.96c-4.68,0-6.67,2.16-6.67,4.56
				c0,3.22,2.4,4.27,7.66,5.61c5.03,1.23,10.41,3.1,10.41,8.71c0,5.38-4.74,7.78-10.41,7.78c-6.49,0-10.76-3.33-11.17-9.42h4.27
				C464.23,392.77,466.74,394.76,471.01,394.76z"/>
			<path class="st0" d="M500.19,394.76c3.51,0,5.73-1.23,5.73-4.15c0-3.86-4.5-4.44-8.71-5.56c-5.61-1.52-9.18-3.8-9.18-8.71
				c0-5.15,4.39-8.3,11.11-8.3c6.32,0,11.64,2.75,12.46,10.64h-4.21c-0.35-5.03-4.04-6.96-8.36-6.96c-4.68,0-6.67,2.16-6.67,4.56
				c0,3.22,2.4,4.27,7.66,5.61c5.03,1.23,10.41,3.1,10.41,8.71c0,5.38-4.74,7.78-10.41,7.78c-6.49,0-10.76-3.33-11.17-9.42h4.27
				C493.41,392.77,495.92,394.76,500.19,394.76z"/>
			<path class="st0" d="M534.23,394v3.8h-4.21c-5.32,0-8.66-3.39-8.66-9.06v-16.55h-5.56v-3.63h5.56v-6.9l4.56-0.82v7.72h7.13v3.63
				h-7.13v15.91c0,4.04,1.64,5.91,4.97,5.91H534.23L534.23,394z"/>
			<path class="st0" d="M564.58,388.45c-0.58,5.26-4.68,9.94-12.46,9.94c-9.24,0-14.09-6.9-14.09-15.2
				c0-8.36,4.85-15.15,13.57-15.15c8.25,0,12.87,5.96,12.87,15.32v0.99h-21.81c0.35,6.26,4.04,10.29,9.59,10.29
				c4.39,0,7.31-2.46,8.07-6.2H564.58z M542.71,380.9h17.25c-0.41-5.15-2.75-9.18-8.25-9.18
				C546.22,371.72,543.35,375.64,542.71,380.9z"/>
			<path class="st0" d="M572.3,397.8v-41.52h4.62v41.52H572.3z"/>
			<path class="st0" d="M585.63,397.8v-41.52h4.62v41.52H585.63z"/>
			<path class="st0" d="M623.7,368.56v29.24h-4.56v-9.18c-1.75,5.38-5.03,9.77-11.23,9.77c-5.67,0-9.06-3.57-9.06-11.17v-18.66h4.56
				v17.02c0,6.14,1.64,9.01,5.61,9.01c5.15,0,10.12-6.32,10.12-17.02v-9.01H623.7z"/>
			<path class="st0" d="M657.97,379.15v18.66h-4.62v-17.02c0-6.2-1.58-9.01-5.61-9.01c-5.09,0-10.12,6.32-10.12,16.96v9.06h-4.5
				v-29.24h4.5v9.18c1.75-5.38,5.03-9.77,11.29-9.77C654.58,367.98,657.97,371.54,657.97,379.15z"/>
			<path class="st0" d="M691.29,368.56v29.18c0,8.6-4.39,13.51-12.87,13.51c-8.42,0-12.05-5.09-12.4-10.7h4.27
				c0.29,3.16,2.11,6.9,8.25,6.9c6.67,0,8.3-4.33,8.3-10.06v-4.27c-0.76,1.75-3.45,5.26-9.24,5.26c-7.66,0-12.4-6.02-12.4-14.97
				c0-9.53,5.5-15.44,12.69-15.44c4.21,0,7.54,2.05,8.95,5.09v-4.5L691.29,368.56L691.29,368.56z M686.86,383.12
				c0-6.96-2.87-11.23-8.3-11.23c-6.02,0-8.77,5.44-8.77,11.81c0,6.43,2.81,10.88,8.42,10.88
				C683.76,394.59,686.86,390.32,686.86,383.12z"/>
			<path class="st0" d="M714.99,358.15h5.38v5.15h-5.38V358.15z M715.4,397.8v-29.24h4.56v29.24H715.4z"/>
			<path class="st0" d="M739.42,394.76c3.51,0,5.73-1.23,5.73-4.15c0-3.86-4.5-4.44-8.71-5.56c-5.61-1.52-9.18-3.8-9.18-8.71
				c0-5.15,4.39-8.3,11.11-8.3c6.32,0,11.64,2.75,12.46,10.64h-4.21c-0.35-5.03-4.04-6.96-8.36-6.96c-4.68,0-6.67,2.16-6.67,4.56
				c0,3.22,2.4,4.27,7.66,5.61c5.03,1.23,10.41,3.1,10.41,8.71c0,5.38-4.74,7.78-10.41,7.78c-6.49,0-10.76-3.33-11.17-9.42h4.27
				C732.65,392.77,735.17,394.76,739.42,394.76z"/>
			<path class="st0" d="M773.47,394v3.8h-4.21c-5.32,0-8.66-3.39-8.66-9.06v-16.55h-5.56v-3.63h5.56v-6.9l4.56-0.82v7.72h7.13v3.63
				h-7.13v15.91c0,4.04,1.64,5.91,4.97,5.91H773.47L773.47,394z"/>
			<path class="st0" d="M798.62,361.19v13.74h18.71v4.21h-18.71v14.33h20.06v4.33h-24.97v-40.94h24.97v4.33L798.62,361.19
				L798.62,361.19z"/>
			<path class="st0" d="M844.39,368.56v3.86h-3.68c-4.97,0-9.77,2.87-9.77,13.22v12.16h-4.56v-29.24h4.56v7.31
				c1.58-4.39,4.21-7.31,9.77-7.31H844.39z"/>
			<path class="st0" d="M874.57,368.56v29.18c0,8.6-4.39,13.51-12.87,13.51c-8.42,0-12.05-5.09-12.4-10.7h4.27
				c0.29,3.16,2.11,6.9,8.25,6.9c6.67,0,8.3-4.33,8.3-10.06v-4.27c-0.76,1.75-3.45,5.26-9.24,5.26c-7.66,0-12.4-6.02-12.4-14.97
				c0-9.53,5.5-15.44,12.69-15.44c4.21,0,7.54,2.05,8.95,5.09v-4.5L874.57,368.56L874.57,368.56z M870.14,383.12
				c0-6.96-2.87-11.23-8.3-11.23c-6.02,0-8.77,5.44-8.77,11.81c0,6.43,2.81,10.88,8.42,10.88
				C867.04,394.59,870.14,390.32,870.14,383.12z"/>
			<path class="st0" d="M908.54,388.45c-0.58,5.26-4.68,9.94-12.46,9.94c-9.24,0-14.09-6.9-14.09-15.2
				c0-8.36,4.85-15.15,13.57-15.15c8.25,0,12.87,5.96,12.87,15.32v0.99h-21.79c0.35,6.26,4.04,10.29,9.59,10.29
				c4.39,0,7.31-2.46,8.07-6.2H908.54z M886.69,380.9h17.25c-0.41-5.15-2.75-9.18-8.25-9.18
				C890.2,371.72,887.33,375.64,886.69,380.9z"/>
			<path class="st0" d="M942.46,383.42c0,8.95-4.74,14.97-12.4,14.97c-5.79,0-8.48-3.45-9.3-5.15v4.56h-4.5v-41.52h4.5v16.84
				c1.4-3.1,4.8-5.15,9.01-5.15C937.04,367.98,942.46,373.88,942.46,383.42z M937.96,383.71c0-6.43-2.81-11.87-8.77-11.87
				c-5.56,0-8.42,4.27-8.42,11.17c0,7.37,3.16,11.58,8.66,11.58C935.15,394.59,937.96,390.14,937.96,383.71z"/>
			<path class="st0" d="M974.16,379.15v18.66h-4.62v-17.02c0-6.2-1.58-9.01-5.61-9.01c-5.09,0-10.12,6.32-10.12,16.96v9.06h-4.5
				v-29.24h4.5v9.18c1.75-5.38,5.03-9.77,11.29-9.77C970.77,367.98,974.16,371.54,974.16,379.15z"/>
			<path class="st0" d="M982.36,358.15h5.38v5.15h-5.38V358.15z M982.75,397.8v-29.24h4.56v29.24H982.75z"/>
			<path class="st0" d="M1006.79,394.76c3.51,0,5.73-1.23,5.73-4.15c0-3.86-4.5-4.44-8.71-5.56c-5.61-1.52-9.18-3.8-9.18-8.71
				c0-5.15,4.39-8.3,11.11-8.3c6.32,0,11.64,2.75,12.46,10.64h-4.21c-0.35-5.03-4.04-6.96-8.36-6.96c-4.68,0-6.67,2.16-6.67,4.56
				c0,3.22,2.4,4.27,7.66,5.61c5.03,1.23,10.41,3.1,10.41,8.71c0,5.38-4.74,7.78-10.41,7.78c-6.49,0-10.76-3.33-11.17-9.42h4.27
				C1000.03,392.77,1002.54,394.76,1006.79,394.76z"/>
			<path class="st0" d="M1065.33,356.28v41.52h-4.5v-4.56c-0.82,1.7-3.51,5.15-9.3,5.15c-7.66,0-12.4-6.02-12.4-14.97
				c0-9.53,5.5-15.44,12.75-15.44c4.21,0,7.54,2.05,8.95,5.15v-16.84L1065.33,356.28L1065.33,356.28z M1060.83,383.01
				c0-6.9-2.87-11.17-8.36-11.17c-6.02,0-8.83,5.44-8.83,11.87c0,6.43,2.81,10.88,8.54,10.88
				C1057.67,394.59,1060.83,390.38,1060.83,383.01z"/>
			<path class="st0" d="M1099.25,388.45c-0.58,5.26-4.68,9.94-12.46,9.94c-9.24,0-14.09-6.9-14.09-15.2
				c0-8.36,4.85-15.15,13.57-15.15c8.25,0,12.87,5.96,12.87,15.32v0.99h-21.81c0.35,6.26,4.04,10.29,9.59,10.29
				c4.39,0,7.31-2.46,8.07-6.2H1099.25z M1077.38,380.9h17.25c-0.41-5.15-2.75-9.18-8.25-9.18
				C1080.88,371.72,1078.02,375.64,1077.38,380.9z"/>
			<path class="st0" d="M1124.98,368.56v3.86h-3.68c-4.97,0-9.77,2.87-9.77,13.22v12.16h-4.56v-29.24h4.56v7.31
				c1.58-4.39,4.21-7.31,9.77-7.31H1124.98z"/>
			<path class="st0" d="M1168.96,387.28h-17.84l-3.74,10.53h-5.09l14.91-40.94h5.67l14.91,40.94h-5.09L1168.96,387.28z
				 M1167.44,383.12l-7.43-20.82l-7.43,20.82H1167.44z"/>
			<path class="st0" d="M1202.11,368.56v3.86h-3.68c-4.97,0-9.77,2.87-9.77,13.22v12.16h-4.56v-29.24h4.56v7.31
				c1.58-4.39,4.21-7.31,9.77-7.31H1202.11z"/>
			<path class="st0" d="M1234.69,383.42c0,8.95-4.74,14.97-12.4,14.97c-5.79,0-8.48-3.45-9.3-5.15v4.56h-4.5v-41.52h4.5v16.84
				c1.4-3.1,4.8-5.15,9.01-5.15C1229.25,367.98,1234.69,373.88,1234.69,383.42z M1230.18,383.71c0-6.43-2.81-11.87-8.77-11.87
				c-5.56,0-8.42,4.27-8.42,11.17c0,7.37,3.16,11.58,8.66,11.58C1227.38,394.59,1230.18,390.14,1230.18,383.71z"/>
			<path class="st0" d="M1267.26,388.45c-0.58,5.26-4.68,9.94-12.46,9.94c-9.24,0-14.09-6.9-14.09-15.2
				c0-8.36,4.85-15.15,13.57-15.15c8.25,0,12.87,5.96,12.87,15.32v0.99h-21.81c0.35,6.26,4.04,10.29,9.59,10.29
				c4.39,0,7.31-2.46,8.07-6.2H1267.26z M1245.39,380.9h17.25c-0.41-5.15-2.75-9.18-8.25-9.18
				C1248.9,371.72,1246.03,375.64,1245.39,380.9z"/>
			<path class="st0" d="M1274.45,358.15h5.38v5.15h-5.38V358.15z M1274.86,397.8v-29.24h4.56v29.24H1274.86z"/>
			<path class="st0" d="M1303.81,394v3.8h-4.21c-5.32,0-8.66-3.39-8.66-9.06v-16.55h-5.56v-3.63h5.56v-6.9l4.56-0.82v7.72h7.13v3.63
				h-7.13v15.91c0,4.04,1.64,5.91,4.97,5.91H1303.81L1303.81,394z"/>
			<path class="st0" d="M249.14,426.46v41.52h-4.5v-4.56c-0.82,1.7-3.51,5.15-9.3,5.15c-7.66,0-12.4-6.02-12.4-14.97
				c0-9.53,5.5-15.44,12.75-15.44c4.21,0,7.54,2.05,8.95,5.15v-16.84L249.14,426.46L249.14,426.46z M244.63,453.18
				c0-6.9-2.87-11.17-8.36-11.17c-6.02,0-8.83,5.44-8.83,11.87c0,6.43,2.81,10.88,8.54,10.88
				C241.48,464.76,244.63,460.55,244.63,453.18z"/>
			<path class="st0" d="M283.06,458.62c-0.58,5.26-4.68,9.94-12.46,9.94c-9.24,0-14.09-6.9-14.09-15.2
				c0-8.36,4.85-15.15,13.57-15.15c8.25,0,12.87,5.96,12.87,15.32v0.99h-21.81c0.35,6.26,4.04,10.29,9.59,10.29
				c4.39,0,7.31-2.46,8.07-6.2L283.06,458.62L283.06,458.62z M261.18,451.08h17.25c-0.41-5.15-2.75-9.18-8.25-9.18
				S261.83,445.81,261.18,451.08z"/>
			<path class="st0" d="M301.36,464.94c3.51,0,5.73-1.23,5.73-4.15c0-3.86-4.5-4.44-8.71-5.56c-5.61-1.52-9.18-3.8-9.18-8.71
				c0-5.15,4.39-8.3,11.11-8.3c6.32,0,11.64,2.75,12.46,10.64h-4.21c-0.35-5.03-4.04-6.96-8.36-6.96c-4.68,0-6.67,2.16-6.67,4.56
				c0,3.22,2.4,4.27,7.66,5.61c5.03,1.23,10.41,3.1,10.41,8.71c0,5.38-4.74,7.78-10.41,7.78c-6.49,0-10.76-3.33-11.17-9.42h4.27
				C294.58,462.95,297.09,464.94,301.36,464.94z"/>
			<path class="st0" d="M362.53,455.52c0,8.66-6.02,13.04-13.98,13.04c-8.3,0-13.39-5.38-14.15-12.81h4.56
				c0.64,4.62,3.74,8.71,9.88,8.71c5.56,0,9.12-3.16,9.12-8.77c0-6.2-3.8-9.65-9.88-9.65c-5.44,0-8.36,2.98-8.6,3.22l-3.57-1.87
				l2.98-20.35h21.46v4.15h-17.43l-2.16,13.28c1.64-1.17,3.98-2.4,7.95-2.4C357.03,442.07,362.53,447.04,362.53,455.52z"/>
			<path class="st0" d="M370.89,462.54h5.5v5.44h-5.5V462.54z"/>
			<path class="st0" d="M413.41,464.29c5.32,0,7.54-2.28,7.54-5.96c0-4.39-2.92-6.02-11.46-8.3c-7.95-2.05-12.11-5.5-12.11-11.99
				c0-7.37,6.78-11.58,14.39-11.58c9.59,0,15.56,4.44,16.49,14.33h-4.85c-0.7-5.91-3.74-10-11.64-10c-4.97,0-9.53,2.4-9.53,7.25
				c0,4.33,2.46,6.37,10.99,8.66c6.67,1.7,12.69,4.33,12.69,11.46c0,6.55-4.8,10.41-12.75,10.41c-8.95,0-14.04-4.97-14.68-12.57
				h4.85C403.99,461.66,407.62,464.29,413.41,464.29z"/>
			<path class="st0" d="M458.85,458.62c-0.58,5.26-4.68,9.94-12.46,9.94c-9.24,0-14.09-6.9-14.09-15.2
				c0-8.36,4.85-15.15,13.57-15.15c8.25,0,12.87,5.96,12.87,15.32v0.99h-21.81c0.35,6.26,4.04,10.29,9.59,10.29
				c4.39,0,7.31-2.46,8.07-6.2L458.85,458.62L458.85,458.62z M436.98,451.08h17.25c-0.41-5.15-2.75-9.18-8.25-9.18
				C440.49,441.9,437.62,445.81,436.98,451.08z"/>
			<path class="st0" d="M508.44,448.15v19.82h-4.5v-17.31c0-5.67-1.7-8.48-5.67-8.48c-4.91,0-8.54,5.79-8.54,14.39v11.4h-4.44
				v-17.31c0-5.67-1.75-8.48-5.67-8.48c-4.91,0-8.54,5.26-8.54,14.39v11.4h-4.5v-29.24h4.5v7.31c1.11-3.51,4.04-7.84,9.59-7.84
				c4.8,0,7.78,2.92,8.71,8.13c1.7-5.03,5.26-8.13,10-8.13C505.28,438.21,508.44,442.42,508.44,448.15z"/>
			<path class="st0" d="M542.3,458.62c-0.58,5.26-4.68,9.94-12.46,9.94c-9.24,0-14.09-6.9-14.09-15.2c0-8.36,4.85-15.15,13.57-15.15
				c8.25,0,12.87,5.96,12.87,15.32v0.99h-21.81c0.35,6.26,4.04,10.29,9.59,10.29c4.39,0,7.31-2.46,8.07-6.2L542.3,458.62
				L542.3,458.62z M520.43,451.08h17.25c-0.41-5.15-2.75-9.18-8.25-9.18S521.07,445.81,520.43,451.08z"/>
			<path class="st0" d="M560.6,464.94c3.51,0,5.73-1.23,5.73-4.15c0-3.86-4.5-4.44-8.71-5.56c-5.61-1.52-9.18-3.8-9.18-8.71
				c0-5.15,4.39-8.3,11.11-8.3c6.32,0,11.64,2.75,12.46,10.64h-4.21c-0.35-5.03-4.04-6.96-8.36-6.96c-4.68,0-6.67,2.16-6.67,4.56
				c0,3.22,2.4,4.27,7.66,5.61c5.03,1.23,10.41,3.1,10.41,8.71c0,5.38-4.74,7.78-10.41,7.78c-6.49,0-10.76-3.33-11.17-9.42h4.27
				C553.82,462.95,556.33,464.94,560.6,464.94z"/>
			<path class="st0" d="M594.64,464.18v3.8h-4.21c-5.32,0-8.66-3.39-8.66-9.06v-16.55h-5.56v-3.63h5.56v-6.9l4.56-0.82v7.72h7.13
				v3.63h-7.13v15.91c0,4.04,1.64,5.91,4.97,5.91H594.64z"/>
			<path class="st0" d="M624.99,458.62c-0.58,5.26-4.68,9.94-12.46,9.94c-9.24,0-14.09-6.9-14.09-15.2
				c0-8.36,4.85-15.15,13.57-15.15c8.25,0,12.87,5.96,12.87,15.32v0.99h-21.81c0.35,6.26,4.04,10.29,9.59,10.29
				c4.39,0,7.31-2.46,8.07-6.2L624.99,458.62L624.99,458.62z M603.12,451.08h17.25c-0.41-5.15-2.75-9.18-8.25-9.18
				C606.63,441.9,603.76,445.81,603.12,451.08z"/>
			<path class="st0" d="M650.72,438.74v3.86h-3.68c-4.97,0-9.77,2.87-9.77,13.22v12.16h-4.56v-29.24h4.56v7.31
				c1.58-4.39,4.21-7.31,9.77-7.31H650.72z"/>
			<path class="st0" d="M667.49,464.94c3.51,0,5.73-1.23,5.73-4.15c0-3.86-4.5-4.44-8.71-5.56c-5.61-1.52-9.18-3.8-9.18-8.71
				c0-5.15,4.39-8.3,11.11-8.3c6.32,0,11.64,2.75,12.46,10.64h-4.21c-0.35-5.03-4.04-6.96-8.36-6.96c-4.68,0-6.67,2.16-6.67,4.56
				c0,3.22,2.4,4.27,7.66,5.61c5.03,1.23,10.41,3.1,10.41,8.71c0,5.38-4.74,7.78-10.41,7.78c-6.49,0-10.76-3.33-11.17-9.42h4.27
				C660.72,462.95,663.24,464.94,667.49,464.94z"/>
			<path class="st0" d="M726.03,426.46v41.52h-4.5v-4.56c-0.82,1.7-3.51,5.15-9.3,5.15c-7.66,0-12.4-6.02-12.4-14.97
				c0-9.53,5.5-15.44,12.75-15.44c4.21,0,7.54,2.05,8.95,5.15v-16.84L726.03,426.46L726.03,426.46z M721.54,453.18
				c0-6.9-2.87-11.17-8.36-11.17c-6.02,0-8.83,5.44-8.83,11.87c0,6.43,2.81,10.88,8.54,10.88
				C718.38,464.76,721.54,460.55,721.54,453.18z"/>
			<path class="st0" d="M759.94,458.62c-0.58,5.26-4.68,9.94-12.46,9.94c-9.24,0-14.09-6.9-14.09-15.2
				c0-8.36,4.85-15.15,13.57-15.15c8.25,0,12.87,5.96,12.87,15.32v0.99h-21.81c0.35,6.26,4.04,10.29,9.59,10.29
				c4.39,0,7.31-2.46,8.07-6.2L759.94,458.62L759.94,458.62z M738.07,451.08h17.25c-0.41-5.15-2.75-9.18-8.25-9.18
				S738.74,445.81,738.07,451.08z"/>
			<path class="st0" d="M785.68,438.74v3.86h-3.68c-4.97,0-9.77,2.87-9.77,13.22v12.16h-4.56v-29.24h4.56v7.31
				c1.58-4.39,4.21-7.31,9.77-7.31H785.68z"/>
			<path class="st0" d="M805.09,447.51c0-12.87,7.19-21.05,19.18-21.05c11.93,0,19.12,8.19,19.12,21.05
				c0,12.87-7.19,21.05-19.12,21.05C812.28,468.56,805.09,460.38,805.09,447.51z M838.37,447.51c0-10.18-5.38-16.78-14.09-16.78
				s-14.15,6.61-14.15,16.78c0,10.18,5.44,16.73,14.15,16.73C832.99,464.24,838.37,457.69,838.37,447.51z"/>
			<path class="st0" d="M862.11,464.94c3.51,0,5.73-1.23,5.73-4.15c0-3.86-4.5-4.44-8.71-5.56c-5.61-1.52-9.18-3.8-9.18-8.71
				c0-5.15,4.39-8.3,11.11-8.3c6.32,0,11.64,2.75,12.46,10.64h-4.21c-0.35-5.03-4.04-6.96-8.36-6.96c-4.68,0-6.67,2.16-6.67,4.56
				c0,3.22,2.4,4.27,7.66,5.61c5.03,1.23,10.41,3.1,10.41,8.71c0,5.38-4.74,7.78-10.41,7.78c-6.49,0-10.76-3.33-11.17-9.42h4.27
				C855.33,462.95,857.84,464.94,862.11,464.94z"/>
			<path class="st0" d="M896.14,464.18v3.8h-4.21c-5.32,0-8.66-3.39-8.66-9.06v-16.55h-5.56v-3.63h5.56v-6.9l4.56-0.82v7.72h7.13
				v3.63h-7.13v15.91c0,4.04,1.64,5.91,4.97,5.91H896.14z"/>
			<path class="st0" d="M910.41,436.75v1.99h7.19v3.63h-7.19v25.61h-4.56v-25.61h-5.32v-3.63h5.32v-2.57c0-5.56,3.39-9.12,8.71-9.12
				h4.39v3.74h-3.57C912.05,430.79,910.41,432.77,910.41,436.75z"/>
			<path class="st0" d="M946.2,447.57v20.41h-4.39v-5.44c-1.11,2.28-4.27,6.02-10.23,6.02c-5.26,0-9.59-2.87-9.59-8.3
				c0-5.26,3.68-7.54,11.58-8.71c5.56-0.88,8.25-1.4,8.25-4.5c0-2.98-2.75-5.15-6.67-5.15c-4.74,0-7.08,2.51-7.43,6.9h-4.39
				c0.23-5.73,3.74-10.58,11.93-10.58C941.41,438.21,946.2,441.31,946.2,447.57z M941.82,455v-2.46c-1.81,1.05-4.44,1.7-7.43,2.22
				c-5.03,0.94-7.95,2.16-7.95,5.5c0,3.27,2.81,4.68,6.02,4.68C937.49,464.94,941.82,461.31,941.82,455z"/>
			<path class="st0" d="M954.63,467.98v-41.52h4.62v41.52H954.63z"/>
			<path class="st0" d="M967.55,428.33h5.38v5.15h-5.38V428.33z M967.96,467.98v-29.24h4.56v29.24H967.96z"/>
			<path class="st0" d="M1004.04,447.57v20.41h-4.39v-5.44c-1.11,2.28-4.27,6.02-10.23,6.02c-5.26,0-9.59-2.87-9.59-8.3
				c0-5.26,3.68-7.54,11.58-8.71c5.56-0.88,8.25-1.4,8.25-4.5c0-2.98-2.75-5.15-6.67-5.15c-4.74,0-7.08,2.51-7.43,6.9h-4.39
				c0.23-5.73,3.74-10.58,11.93-10.58C999.25,438.21,1004.04,441.31,1004.04,447.57z M999.66,455v-2.46
				c-1.81,1.05-4.44,1.7-7.43,2.22c-5.03,0.94-7.95,2.16-7.95,5.5c0,3.27,2.81,4.68,6.02,4.68
				C995.33,464.94,999.66,461.31,999.66,455z"/>
			<path class="st0" d="M1060.42,427.04v40.94h-4.97v-18.66h-22.22v18.66h-4.97v-40.94h4.97V445h22.22v-17.95L1060.42,427.04
				L1060.42,427.04z"/>
			<path class="st0" d="M1068.31,453.42c0-8.89,5.38-15.2,13.86-15.2s13.86,6.32,13.86,15.2c0,8.83-5.38,15.15-13.86,15.15
				S1068.31,462.25,1068.31,453.42z M1091.53,453.42c0-6.49-3.33-11.46-9.36-11.46s-9.36,4.97-9.36,11.46
				c0,6.43,3.33,11.4,9.36,11.4S1091.53,459.85,1091.53,453.42z"/>
			<path class="st0" d="M1115.91,442.01c-5.91,0-9.36,5.2-9.36,11.4c0,6.67,3.86,11.35,9.88,11.35c4.85,0,7.19-2.81,7.95-6.55h4.44
				c-0.99,6.14-5.26,10.35-12.46,10.35c-9.24,0-14.33-6.84-14.33-15.2c0-8.36,5.26-15.15,13.8-15.15c6.96,0,11.93,4.33,12.63,10.76
				h-4.44C1123.4,444.59,1120.18,442.01,1115.91,442.01z"/>
			<path class="st0" d="M1161.06,449.32v18.66h-4.62v-17.02c0-6.2-1.58-9.01-5.61-9.01c-5.09,0-10.12,6.32-10.12,16.96v9.06h-4.5
				v-41.52h4.5v21.46c1.75-5.38,5.03-9.77,11.29-9.77C1157.67,438.15,1161.06,441.72,1161.06,449.32z"/>
			<path class="st0" d="M1180.36,464.94c3.51,0,5.73-1.23,5.73-4.15c0-3.86-4.5-4.44-8.71-5.56c-5.61-1.52-9.18-3.8-9.18-8.71
				c0-5.15,4.39-8.3,11.11-8.3c6.32,0,11.64,2.75,12.46,10.64h-4.21c-0.35-5.03-4.04-6.96-8.36-6.96c-4.68,0-6.67,2.16-6.67,4.56
				c0,3.22,2.4,4.27,7.66,5.61c5.03,1.23,10.41,3.1,10.41,8.71c0,5.38-4.74,7.78-10.41,7.78c-6.49,0-10.76-3.33-11.17-9.42h4.27
				C1173.58,462.95,1176.09,464.94,1180.36,464.94z"/>
			<path class="st0" d="M1211.3,442.01c-5.91,0-9.36,5.2-9.36,11.4c0,6.67,3.86,11.35,9.88,11.35c4.85,0,7.19-2.81,7.95-6.55h4.44
				c-0.99,6.14-5.26,10.35-12.46,10.35c-9.24,0-14.33-6.84-14.33-15.2c0-8.36,5.26-15.15,13.8-15.15c6.96,0,11.93,4.33,12.63,10.76
				h-4.44C1218.78,444.59,1215.56,442.01,1211.3,442.01z"/>
			<path class="st0" d="M1256.44,449.32v18.66h-4.62v-17.02c0-6.2-1.58-9.01-5.61-9.01c-5.09,0-10.12,6.32-10.12,16.96v9.06h-4.5
				v-41.52h4.5v21.46c1.75-5.38,5.03-9.77,11.29-9.77C1253.05,438.15,1256.44,441.72,1256.44,449.32z"/>
			<path class="st0" d="M1289.78,438.74v29.24h-4.56v-9.18c-1.75,5.38-5.03,9.77-11.23,9.77c-5.67,0-9.06-3.57-9.06-11.17v-18.66
				h4.56v17.02c0,6.14,1.64,9.01,5.61,9.01c5.15,0,10.12-6.32,10.12-17.02v-9.01H1289.78z"/>
			<path class="st0" d="M1298.55,467.98v-41.52h4.62v41.52H1298.55z"/>
			<path class="st0" d="M1337.03,458.62c-0.58,5.26-4.68,9.94-12.46,9.94c-9.24,0-14.09-6.9-14.09-15.2
				c0-8.36,4.85-15.15,13.57-15.15c8.25,0,12.87,5.96,12.87,15.32v0.99h-21.81c0.35,6.26,4.04,10.29,9.59,10.29
				c4.39,0,7.31-2.46,8.07-6.2L1337.03,458.62L1337.03,458.62z M1315.16,451.08h17.25c-0.41-5.15-2.75-9.18-8.25-9.18
				C1318.67,441.9,1315.8,445.81,1315.16,451.08z"/>
			<path class="st0" d="M232.12,506.93v1.99h7.19v3.63h-7.19v25.61h-4.56v-25.61h-5.32v-3.63h5.32v-2.57c0-5.56,3.39-9.12,8.71-9.12
				h4.39v3.74h-3.57C233.76,500.96,232.12,502.95,232.12,506.93z"/>
			<path class="st0" d="M270.66,508.91v29.24h-4.56v-9.18c-1.75,5.38-5.03,9.77-11.23,9.77c-5.67,0-9.06-3.57-9.06-11.17v-18.66
				h4.56v17.02c0,6.14,1.64,9.01,5.61,9.01c5.15,0,10.12-6.32,10.12-17.02v-9.01H270.66z M254.99,504h-4.8v-4.8h4.8V504z
				 M266.39,504h-4.8v-4.8h4.8V504z"/>
			<path class="st0" d="M298.09,508.91v3.86h-3.68c-4.97,0-9.77,2.87-9.77,13.22v12.16h-4.56v-29.24h4.56v7.31
				c1.58-4.39,4.21-7.31,9.77-7.31H298.09z"/>
			<path class="st0" d="M341.36,517.75v20.41h-4.39v-5.44c-1.11,2.28-4.27,6.02-10.23,6.02c-5.26,0-9.59-2.87-9.59-8.3
				c0-5.26,3.68-7.54,11.58-8.71c5.56-0.88,8.25-1.4,8.25-4.5c0-2.98-2.75-5.15-6.67-5.15c-4.74,0-7.08,2.51-7.43,6.9h-4.39
				c0.23-5.73,3.74-10.58,11.93-10.58C336.57,508.39,341.36,511.49,341.36,517.75z M336.97,525.17v-2.46
				c-1.81,1.05-4.44,1.7-7.43,2.22c-5.03,0.94-7.95,2.16-7.95,5.5c0,3.27,2.81,4.68,6.02,4.68
				C332.65,535.11,336.97,531.49,336.97,525.17z"/>
			<path class="st0" d="M374.99,519.5v18.66h-4.62v-17.02c0-6.2-1.58-9.01-5.61-9.01c-5.09,0-10.12,6.32-10.12,16.96v9.06h-4.5
				v-29.24h4.5v9.18c1.75-5.38,5.03-9.77,11.29-9.77C371.6,508.33,374.99,511.9,374.99,519.5z"/>
			<path class="st0" d="M408.32,508.91v29.18c0,8.6-4.39,13.51-12.87,13.51c-8.42,0-12.05-5.09-12.4-10.7h4.27
				c0.29,3.16,2.11,6.9,8.25,6.9c6.67,0,8.3-4.33,8.3-10.06v-4.27c-0.76,1.75-3.45,5.26-9.24,5.26c-7.66,0-12.4-6.02-12.4-14.97
				c0-9.53,5.5-15.44,12.69-15.44c4.21,0,7.54,2.05,8.95,5.09v-4.5H408.32z M403.88,523.48c0-6.96-2.87-11.23-8.3-11.23
				c-6.02,0-8.77,5.44-8.77,11.81c0,6.43,2.81,10.88,8.42,10.88C400.78,534.94,403.88,530.67,403.88,523.48z"/>
			<path class="st0" d="M442.3,528.8c-0.58,5.26-4.68,9.94-12.46,9.94c-9.24,0-14.09-6.9-14.09-15.2c0-8.36,4.85-15.15,13.57-15.15
				c8.25,0,12.87,5.96,12.87,15.32v0.99h-21.81c0.35,6.26,4.04,10.29,9.59,10.29c4.39,0,7.31-2.46,8.07-6.2L442.3,528.8L442.3,528.8
				z M420.43,521.25h17.25c-0.41-5.15-2.75-9.18-8.25-9.18C423.94,512.07,421.07,515.99,420.43,521.25z"/>
			<path class="st0" d="M486.92,508.86l-7.37,29.3h-4.97l-7.66-24.74l-7.66,24.74h-4.97l-7.31-29.3h4.44l5.73,23.86l7.37-23.86h4.85
				l7.37,23.8l5.73-23.8H486.92z"/>
			<path class="st0" d="M515.52,517.75v20.41h-4.39v-5.44c-1.11,2.28-4.27,6.02-10.23,6.02c-5.26,0-9.59-2.87-9.59-8.3
				c0-5.26,3.68-7.54,11.58-8.71c5.56-0.88,8.25-1.4,8.25-4.5c0-2.98-2.75-5.15-6.67-5.15c-4.74,0-7.08,2.51-7.43,6.9h-4.39
				c0.23-5.73,3.74-10.58,11.93-10.58C510.72,508.39,515.52,511.49,515.52,517.75z M511.13,525.17v-2.46
				c-1.81,1.05-4.44,1.7-7.43,2.22c-5.03,0.94-7.95,2.16-7.95,5.5c0,3.27,2.81,4.68,6.02,4.68
				C506.8,535.11,511.13,531.49,511.13,525.17z"/>
			<path class="st0" d="M549.14,519.5v18.66h-4.62v-17.02c0-6.2-1.58-9.01-5.61-9.01c-5.09,0-10.12,6.32-10.12,16.96v9.06h-4.5
				v-29.24h4.5v9.18c1.75-5.38,5.03-9.77,11.29-9.77C545.75,508.33,549.14,511.9,549.14,519.5z"/>
			<path class="st0" d="M582.59,496.63v41.52h-4.5v-4.56c-0.82,1.7-3.51,5.15-9.3,5.15c-7.66,0-12.4-6.02-12.4-14.97
				c0-9.53,5.5-15.44,12.75-15.44c4.21,0,7.54,2.05,8.95,5.15v-16.84H582.59z M578.09,523.36c0-6.9-2.87-11.17-8.36-11.17
				c-6.02,0-8.83,5.44-8.83,11.87c0,6.43,2.81,10.88,8.54,10.88C574.93,534.94,578.09,530.73,578.09,523.36z"/>
			<path class="st0" d="M606.98,534.35v3.8h-4.21c-5.32,0-8.66-3.39-8.66-9.06v-16.55h-5.56v-3.63h5.56v-6.9l4.56-0.82v7.72h7.13
				v3.63h-7.13v15.91c0,4.04,1.64,5.91,4.97,5.91H606.98z"/>
			<path class="st0" d="M637.33,528.8c-0.58,5.26-4.68,9.94-12.46,9.94c-9.24,0-14.09-6.9-14.09-15.2c0-8.36,4.85-15.15,13.57-15.15
				c8.25,0,12.87,5.96,12.87,15.32v0.99H615.4c0.35,6.26,4.04,10.29,9.59,10.29c4.39,0,7.31-2.46,8.07-6.2L637.33,528.8
				L637.33,528.8z M615.46,521.25h17.25c-0.41-5.15-2.75-9.18-8.25-9.18S616.1,515.99,615.46,521.25z"/>
			<path class="st0" d="M711.41,497.22l-9.53,40.94h-5.38l-11.52-36.14l-11.46,36.14h-5.44l-9.53-40.94h4.91l7.6,34.91l11.11-34.91
				h5.67l11.05,34.91l7.6-34.91H711.41z"/>
			<path class="st0" d="M717.97,498.51h5.38v5.15h-5.38V498.51z M718.38,538.16v-29.24h4.56v29.24H718.38z"/>
			<path class="st0" d="M742.4,535.11c3.51,0,5.73-1.23,5.73-4.15c0-3.86-4.5-4.44-8.71-5.56c-5.61-1.52-9.18-3.8-9.18-8.71
				c0-5.15,4.39-8.3,11.11-8.3c6.32,0,11.64,2.75,12.46,10.64h-4.21c-0.35-5.03-4.04-6.96-8.36-6.96c-4.68,0-6.67,2.16-6.67,4.56
				c0,3.22,2.4,4.27,7.66,5.61c5.03,1.23,10.41,3.1,10.41,8.71c0,5.38-4.74,7.78-10.41,7.78c-6.49,0-10.76-3.33-11.17-9.42h4.27
				C735.64,533.13,738.13,535.11,742.4,535.11z"/>
			<path class="st0" d="M771.58,535.11c3.51,0,5.73-1.23,5.73-4.15c0-3.86-4.5-4.44-8.71-5.56c-5.61-1.52-9.18-3.8-9.18-8.71
				c0-5.15,4.39-8.3,11.11-8.3c6.32,0,11.64,2.75,12.46,10.64h-4.21c-0.35-5.03-4.04-6.96-8.36-6.96c-4.68,0-6.67,2.16-6.67,4.56
				c0,3.22,2.4,4.27,7.66,5.61c5.03,1.23,10.41,3.1,10.41,8.71c0,5.38-4.74,7.78-10.41,7.78c-6.49,0-10.76-3.33-11.17-9.42h4.27
				C764.82,533.13,767.33,535.11,771.58,535.11z"/>
			<path class="st0" d="M815.21,528.8c-0.58,5.26-4.68,9.94-12.46,9.94c-9.24,0-14.09-6.9-14.09-15.2c0-8.36,4.85-15.15,13.57-15.15
				c8.25,0,12.87,5.96,12.87,15.32v0.99h-21.81c0.35,6.26,4.04,10.29,9.59,10.29c4.39,0,7.31-2.46,8.07-6.2L815.21,528.8
				L815.21,528.8z M793.36,521.25h17.25c-0.41-5.15-2.75-9.18-8.25-9.18S794,515.99,793.36,521.25z"/>
			<path class="st0" d="M847.78,519.5v18.66h-4.62v-17.02c0-6.2-1.58-9.01-5.61-9.01c-5.09,0-10.12,6.32-10.12,16.96v9.06h-4.5
				v-29.24h4.5v9.18c1.75-5.38,5.03-9.77,11.29-9.77C844.39,508.33,847.78,511.9,847.78,519.5z"/>
			<path class="st0" d="M867.08,535.11c3.51,0,5.73-1.23,5.73-4.15c0-3.86-4.5-4.44-8.71-5.56c-5.61-1.52-9.18-3.8-9.18-8.71
				c0-5.15,4.39-8.3,11.11-8.3c6.32,0,11.64,2.75,12.46,10.64h-4.21c-0.35-5.03-4.04-6.96-8.36-6.96c-4.68,0-6.67,2.16-6.67,4.56
				c0,3.22,2.4,4.27,7.66,5.61c5.03,1.23,10.41,3.1,10.41,8.71c0,5.38-4.74,7.78-10.41,7.78c-6.49,0-10.76-3.33-11.17-9.42H860
				C860.3,533.13,862.83,535.11,867.08,535.11z"/>
			<path class="st0" d="M898.02,512.19c-5.91,0-9.36,5.2-9.36,11.4c0,6.67,3.86,11.35,9.88,11.35c4.85,0,7.19-2.81,7.95-6.55h4.44
				c-0.99,6.14-5.26,10.35-12.46,10.35c-9.24,0-14.33-6.84-14.33-15.2c0-8.36,5.26-15.15,13.8-15.15c6.96,0,11.93,4.33,12.63,10.76
				h-4.44C905.5,514.76,902.29,512.19,898.02,512.19z"/>
			<path class="st0" d="M943.16,519.5v18.66h-4.62v-17.02c0-6.2-1.58-9.01-5.61-9.01c-5.09,0-10.12,6.32-10.12,16.96v9.06h-4.5
				v-41.52h4.5v21.46c1.75-5.38,5.03-9.77,11.29-9.77C939.77,508.33,943.16,511.9,943.16,519.5z"/>
			<path class="st0" d="M974.63,517.75v20.41h-4.39v-5.44c-1.11,2.28-4.27,6.02-10.23,6.02c-5.26,0-9.59-2.87-9.59-8.3
				c0-5.26,3.68-7.54,11.58-8.71c5.56-0.88,8.25-1.4,8.25-4.5c0-2.98-2.75-5.15-6.67-5.15c-4.74,0-7.08,2.51-7.43,6.9h-4.39
				c0.23-5.73,3.74-10.58,11.93-10.58C969.83,508.39,974.63,511.49,974.63,517.75z M970.24,525.17v-2.46
				c-1.81,1.05-4.44,1.7-7.43,2.22c-5.03,0.94-7.95,2.16-7.95,5.5c0,3.27,2.81,4.68,6.02,4.68
				C965.91,535.11,970.24,531.49,970.24,525.17z"/>
			<path class="st0" d="M990.2,506.93v1.99h7.19v3.63h-7.19v25.61h-4.56v-25.61h-5.32v-3.63h5.32v-2.57c0-5.56,3.39-9.12,8.71-9.12
				h4.39v3.74h-3.57C991.82,500.96,990.2,502.95,990.2,506.93z"/>
			<path class="st0" d="M1021,534.35v3.8h-4.21c-5.32,0-8.66-3.39-8.66-9.06v-16.55h-5.56v-3.63h5.56v-6.9l4.56-0.82v7.72h7.13v3.63
				h-7.13v15.91c0,4.04,1.64,5.91,4.97,5.91H1021z"/>
			<path class="st0" d="M1051.35,528.8c-0.58,5.26-4.68,9.94-12.46,9.94c-9.24,0-14.09-6.9-14.09-15.2
				c0-8.36,4.85-15.15,13.57-15.15c8.25,0,12.87,5.96,12.87,15.32v0.99h-21.81c0.35,6.26,4.04,10.29,9.59,10.29
				c4.39,0,7.31-2.46,8.07-6.2L1051.35,528.8L1051.35,528.8z M1029.48,521.25h17.25c-0.41-5.15-2.75-9.18-8.25-9.18
				S1030.12,515.99,1029.48,521.25z"/>
			<path class="st0" d="M1083.93,519.5v18.66h-4.62v-17.02c0-6.2-1.58-9.01-5.61-9.01c-5.09,0-10.12,6.32-10.12,16.96v9.06h-4.5
				v-29.24h4.5v9.18c1.75-5.38,5.03-9.77,11.29-9.77C1080.53,508.33,1083.93,511.9,1083.93,519.5z"/>
			<path class="st0" d="M223.99,568.68h5.38v5.15h-5.38V568.68z M224.4,608.33v-29.24h4.56v29.24H224.4z"/>
			<path class="st0" d="M279.61,588.51v19.82h-4.5v-17.31c0-5.67-1.7-8.48-5.67-8.48c-4.91,0-8.54,5.79-8.54,14.39v11.4h-4.44
				v-17.31c0-5.67-1.75-8.48-5.67-8.48c-4.91,0-8.54,5.26-8.54,14.39v11.4h-4.5v-29.24h4.5v7.31c1.11-3.51,4.04-7.84,9.59-7.84
				c4.8,0,7.78,2.92,8.71,8.13c1.7-5.03,5.26-8.13,10-8.13C276.45,578.57,279.61,582.78,279.61,588.51z"/>
			<path class="st0" d="M331.07,597.57c0,6.49-3.74,10.76-12.16,10.76h-10h-4.8V567.4h4.8h11.35c8.77,0,12.63,4.27,12.63,10.53
				c0,4.8-2.22,8.89-9.06,10.18C329.14,589.73,331.07,593.36,331.07,597.57z M308.9,571.61v14.09h10.94c4.97,0,8.3-2.81,8.3-7.54
				c0-4.04-2.46-6.55-7.95-6.55L308.9,571.61L308.9,571.61z M326.1,597.16c0-4.5-3.39-7.31-8.83-7.31h-8.36v14.21h9.36
				C323.64,604.06,326.1,601.43,326.1,597.16z"/>
			<path class="st0" d="M364.87,598.97c-0.58,5.26-4.68,9.94-12.46,9.94c-9.24,0-14.09-6.9-14.09-15.2
				c0-8.36,4.85-15.15,13.57-15.15c8.25,0,12.87,5.97,12.87,15.32v0.99h-21.81c0.35,6.26,4.04,10.29,9.59,10.29
				c4.39,0,7.31-2.46,8.07-6.2L364.87,598.97L364.87,598.97z M343,591.43h17.25c-0.41-5.15-2.75-9.18-8.25-9.18
				S343.64,586.17,343,591.43z"/>
			<path class="st0" d="M390.6,579.09v3.86h-3.68c-4.97,0-9.77,2.87-9.77,13.22v12.16h-4.56v-29.24h4.56v7.31
				c1.58-4.39,4.21-7.31,9.77-7.31H390.6z"/>
			<path class="st0" d="M420.66,598.97c-0.58,5.26-4.68,9.94-12.46,9.94c-9.24,0-14.09-6.9-14.09-15.2
				c0-8.36,4.85-15.15,13.57-15.15c8.25,0,12.87,5.97,12.87,15.32v0.99h-21.81c0.35,6.26,4.04,10.29,9.59,10.29
				c4.39,0,7.31-2.46,8.07-6.2L420.66,598.97L420.66,598.97z M398.79,591.43h17.25c-0.41-5.15-2.75-9.18-8.25-9.18
				S399.43,586.17,398.79,591.43z"/>
			<path class="st0" d="M427.85,568.68h5.38v5.15h-5.38V568.68z M428.26,608.33v-29.24h4.56v29.24H428.26z"/>
			<path class="st0" d="M453.94,582.37c-5.91,0-9.36,5.2-9.36,11.4c0,6.67,3.86,11.35,9.88,11.35c4.85,0,7.19-2.81,7.95-6.55h4.44
				c-0.99,6.14-5.26,10.35-12.46,10.35c-9.24,0-14.33-6.84-14.33-15.2c0-8.36,5.26-15.15,13.8-15.15c6.96,0,11.93,4.33,12.63,10.76
				h-4.44C461.42,584.94,458.2,582.37,453.94,582.37z"/>
			<path class="st0" d="M499.08,589.68v18.66h-4.62v-17.02c0-6.2-1.58-9.01-5.61-9.01c-5.09,0-10.12,6.32-10.12,16.96v9.06h-4.5
				v-41.52h4.5v21.46c1.75-5.38,5.03-9.77,11.29-9.77C495.69,578.51,499.08,582.07,499.08,589.68z"/>
			<path class="st0" d="M564.64,608.33h-4.8v-34.97l-13.04,34.97h-5.5l-13.04-35.09v35.09h-4.74V567.4h7.13l13.45,36.55l13.39-36.55
				h7.13V608.33z"/>
			<path class="st0" d="M599.38,598.97c-0.58,5.26-4.68,9.94-12.46,9.94c-9.24,0-14.09-6.9-14.09-15.2
				c0-8.36,4.85-15.15,13.57-15.15c8.25,0,12.87,5.97,12.87,15.32v0.99h-21.81c0.35,6.26,4.04,10.29,9.59,10.29
				c4.39,0,7.31-2.46,8.07-6.2L599.38,598.97L599.38,598.97z M577.5,591.43h17.25c-0.41-5.15-2.75-9.18-8.25-9.18
				C581.01,582.25,578.15,586.17,577.5,591.43z"/>
			<path class="st0" d="M631.77,566.81v41.52h-4.5v-4.56c-0.82,1.7-3.51,5.15-9.3,5.15c-7.66,0-12.4-6.02-12.4-14.97
				c0-9.53,5.5-15.44,12.75-15.44c4.21,0,7.54,2.05,8.95,5.15v-16.84H631.77z M627.27,593.54c0-6.9-2.87-11.17-8.36-11.17
				c-6.02,0-8.83,5.44-8.83,11.87s2.81,10.88,8.54,10.88C624.11,605.12,627.27,600.9,627.27,593.54z"/>
			<path class="st0" d="M640.14,568.68h5.38v5.15h-5.38V568.68z M640.55,608.33v-29.24h4.56v29.24H640.55z"/>
			<path class="st0" d="M678.91,598.97c-0.58,5.26-4.68,9.94-12.46,9.94c-9.24,0-14.09-6.9-14.09-15.2
				c0-8.36,4.85-15.15,13.57-15.15c8.25,0,12.87,5.97,12.87,15.32v0.99h-21.81c0.35,6.26,4.04,10.29,9.59,10.29
				c4.39,0,7.31-2.46,8.07-6.2L678.91,598.97L678.91,598.97z M657.04,591.43h17.25c-0.41-5.15-2.75-9.18-8.25-9.18
				C660.55,582.25,657.68,586.17,657.04,591.43z"/>
			<path class="st0" d="M711.48,589.68v18.66h-4.62v-17.02c0-6.2-1.58-9.01-5.61-9.01c-5.09,0-10.12,6.32-10.12,16.96v9.06h-4.5
				v-29.24h4.5v9.18c1.75-5.38,5.03-9.77,11.29-9.77C708.09,578.51,711.48,582.07,711.48,589.68z"/>
			<path class="st0" d="M744.93,566.81v41.52h-4.5v-4.56c-0.82,1.7-3.51,5.15-9.3,5.15c-7.66,0-12.4-6.02-12.4-14.97
				c0-9.53,5.5-15.44,12.75-15.44c4.21,0,7.54,2.05,8.95,5.15v-16.84H744.93z M740.43,593.54c0-6.9-2.87-11.17-8.36-11.17
				c-6.02,0-8.83,5.44-8.83,11.87s2.81,10.88,8.54,10.88C737.27,605.12,740.43,600.9,740.43,593.54z"/>
			<path class="st0" d="M778.85,598.97c-0.58,5.26-4.68,9.94-12.46,9.94c-9.24,0-14.09-6.9-14.09-15.2
				c0-8.36,4.85-15.15,13.57-15.15c8.25,0,12.87,5.97,12.87,15.32v0.99h-21.81c0.35,6.26,4.04,10.29,9.59,10.29
				c4.39,0,7.31-2.46,8.07-6.2L778.85,598.97L778.85,598.97z M756.98,591.43h17.25c-0.41-5.15-2.75-9.18-8.25-9.18
				S757.62,586.17,756.98,591.43z"/>
			<path class="st0" d="M797.16,605.29c3.51,0,5.73-1.23,5.73-4.15c0-3.86-4.5-4.44-8.71-5.56c-5.61-1.52-9.18-3.8-9.18-8.71
				c0-5.15,4.39-8.3,11.11-8.3c6.32,0,11.64,2.75,12.46,10.64h-4.21c-0.35-5.03-4.04-6.96-8.36-6.96c-4.68,0-6.67,2.16-6.67,4.56
				c0,3.22,2.4,4.27,7.66,5.61c5.03,1.23,10.41,3.1,10.41,8.71c0,5.38-4.74,7.78-10.41,7.78c-6.49,0-10.76-3.33-11.17-9.42h4.27
				C790.37,603.3,792.89,605.29,797.16,605.29z"/>
			<path class="st0" d="M814.99,568.68h5.38v5.15h-5.38V568.68z M815.4,608.33v-29.24h4.56v29.24H815.4z"/>
			<path class="st0" d="M853.42,579.09v29.18c0,8.6-4.39,13.51-12.87,13.51c-8.42,0-12.05-5.09-12.4-10.7h4.27
				c0.29,3.16,2.11,6.9,8.25,6.9c6.67,0,8.3-4.33,8.3-10.06v-4.27c-0.76,1.75-3.45,5.26-9.24,5.26c-7.66,0-12.4-6.02-12.4-14.97
				c0-9.53,5.5-15.44,12.69-15.44c4.21,0,7.54,2.05,8.95,5.09v-4.5H853.42z M848.97,593.65c0-6.96-2.87-11.23-8.3-11.23
				c-6.02,0-8.77,5.44-8.77,11.81c0,6.43,2.81,10.88,8.42,10.88C845.87,605.12,848.97,600.85,848.97,593.65z"/>
			<path class="st0" d="M887.04,589.68v18.66h-4.62v-17.02c0-6.2-1.58-9.01-5.61-9.01c-5.09,0-10.12,6.32-10.12,16.96v9.06h-4.5
				v-29.24h4.5v9.18c1.75-5.38,5.03-9.77,11.29-9.77C883.65,578.51,887.04,582.07,887.04,589.68z"/>
			<path class="st0" d="M238.84,745c5.32,0,7.54-2.28,7.54-5.96c0-4.39-2.92-6.02-11.46-8.3c-7.95-2.05-12.11-5.5-12.11-11.99
				c0-7.37,6.78-11.58,14.39-11.58c9.59,0,15.56,4.44,16.49,14.33h-4.85c-0.7-5.91-3.74-10-11.64-10c-4.97,0-9.53,2.4-9.53,7.25
				c0,4.33,2.46,6.37,10.99,8.66c6.67,1.7,12.69,4.33,12.69,11.46c0,6.55-4.8,10.41-12.75,10.41c-8.95,0-14.04-4.97-14.68-12.57
				h4.85C229.43,742.37,233.06,745,238.84,745z"/>
			<path class="st0" d="M271.59,722.72c-5.91,0-9.36,5.2-9.36,11.4c0,6.67,3.86,11.35,9.88,11.35c4.85,0,7.19-2.81,7.95-6.55h4.44
				c-0.99,6.14-5.26,10.35-12.46,10.35c-9.24,0-14.33-6.84-14.33-15.2c0-8.36,5.26-15.15,13.8-15.15c6.96,0,11.93,4.33,12.63,10.76
				h-4.44C279.08,725.29,275.86,722.72,271.59,722.72z"/>
			<path class="st0" d="M316.74,730.03v18.66h-4.62v-17.02c0-6.2-1.58-9.01-5.61-9.01c-5.09,0-10.12,6.32-10.12,16.96v9.06h-4.5
				v-41.52h4.5v21.46c1.75-5.38,5.03-9.77,11.29-9.77C313.35,718.86,316.74,722.43,316.74,730.03z"/>
			<path class="st0" d="M348.2,728.27v20.41h-4.39v-5.44c-1.11,2.28-4.27,6.02-10.23,6.02c-5.26,0-9.59-2.87-9.59-8.3
				c0-5.26,3.68-7.54,11.58-8.71c5.56-0.88,8.25-1.4,8.25-4.5c0-2.98-2.75-5.15-6.67-5.15c-4.74,0-7.08,2.51-7.43,6.9h-4.39
				c0.23-5.73,3.74-10.58,11.93-10.58C343.41,718.92,348.2,722.02,348.2,728.27z M343.82,735.7v-2.46c-1.81,1.05-4.44,1.7-7.43,2.22
				c-5.03,0.94-7.95,2.16-7.95,5.5c0,3.27,2.81,4.68,6.02,4.68C339.49,745.64,343.82,742.02,343.82,735.7z"/>
			<path class="st0" d="M381.6,719.44v29.24h-4.56v-9.18c-1.75,5.38-5.03,9.77-11.23,9.77c-5.67,0-9.06-3.57-9.06-11.17v-18.66h4.56
				v17.02c0,6.14,1.64,9.01,5.61,9.01c5.15,0,10.12-6.32,10.12-17.02v-9.01H381.6z"/>
			<path class="st0" d="M430.37,707.16v41.52h-4.5v-4.56c-0.82,1.7-3.51,5.15-9.3,5.15c-7.66,0-12.4-6.02-12.4-14.97
				c0-9.53,5.5-15.44,12.75-15.44c4.21,0,7.54,2.05,8.95,5.15v-16.84H430.37z M425.86,733.89c0-6.9-2.87-11.17-8.36-11.17
				c-6.02,0-8.83,5.44-8.83,11.87c0,6.43,2.81,10.88,8.54,10.88C422.71,745.47,425.86,741.26,425.86,733.89z"/>
			<path class="st0" d="M438.73,709.03h5.38v5.15h-5.38V709.03z M439.14,748.68v-29.24h4.56v29.24H439.14z"/>
			<path class="st0" d="M464.81,722.72c-5.91,0-9.36,5.2-9.36,11.4c0,6.67,3.86,11.35,9.88,11.35c4.85,0,7.19-2.81,7.95-6.55h4.44
				c-0.99,6.14-5.26,10.35-12.46,10.35c-9.24,0-14.33-6.84-14.33-15.2c0-8.36,5.26-15.15,13.8-15.15c6.96,0,11.93,4.33,12.63,10.76
				h-4.44C472.3,725.29,469.08,722.72,464.81,722.72z"/>
			<path class="st0" d="M509.96,730.03v18.66h-4.62v-17.02c0-6.2-1.58-9.01-5.61-9.01c-5.09,0-10.12,6.32-10.12,16.96v9.06h-4.5
				v-41.52h4.5v21.46c1.75-5.38,5.03-9.77,11.29-9.77C506.57,718.86,509.96,722.43,509.96,730.03z"/>
			<path class="st0" d="M558.5,719.44v29.18c0,8.6-4.39,13.51-12.87,13.51c-8.42,0-12.05-5.09-12.4-10.7h4.27
				c0.29,3.16,2.11,6.9,8.25,6.9c6.67,0,8.3-4.33,8.3-10.06v-4.27c-0.76,1.75-3.45,5.26-9.24,5.26c-7.66,0-12.4-6.02-12.4-14.97
				c0-9.53,5.5-15.44,12.69-15.44c4.21,0,7.54,2.05,8.95,5.09v-4.5H558.5z M554.05,734.01c0-6.96-2.87-11.23-8.3-11.23
				c-6.02,0-8.77,5.44-8.77,11.81c0,6.43,2.81,10.88,8.42,10.88C550.95,745.47,554.05,741.2,554.05,734.01z"/>
			<path class="st0" d="M592.48,739.33c-0.58,5.26-4.68,9.94-12.46,9.94c-9.24,0-14.09-6.9-14.09-15.2
				c0-8.36,4.85-15.15,13.57-15.15c8.25,0,12.87,5.97,12.87,15.32v0.99h-21.81c0.35,6.26,4.04,10.29,9.59,10.29
				c4.39,0,7.31-2.46,8.07-6.2L592.48,739.33L592.48,739.33z M570.6,731.78h17.25c-0.41-5.15-2.75-9.18-8.25-9.18
				C574.11,722.6,571.25,726.52,570.6,731.78z"/>
			<path class="st0" d="M618.21,719.44v3.86h-3.68c-4.97,0-9.77,2.87-9.77,13.22v12.16h-4.56v-29.24h4.56v7.31
				c1.58-4.39,4.21-7.31,9.77-7.31H618.21z"/>
			<path class="st0" d="M649.44,730.03v18.66h-4.62v-17.02c0-6.2-1.58-9.01-5.61-9.01c-5.09,0-10.12,6.32-10.12,16.96v9.06h-4.5
				v-29.24h4.5v9.18c1.75-5.38,5.03-9.77,11.29-9.77C646.04,718.86,649.44,722.43,649.44,730.03z"/>
			<path class="st0" d="M683.24,739.33c-0.58,5.26-4.68,9.94-12.46,9.94c-9.24,0-14.09-6.9-14.09-15.2
				c0-8.36,4.85-15.15,13.57-15.15c8.25,0,12.87,5.97,12.87,15.32v0.99h-21.81c0.35,6.26,4.04,10.29,9.59,10.29
				c4.39,0,7.31-2.46,8.07-6.2L683.24,739.33L683.24,739.33z M661.37,731.78h17.25c-0.41-5.15-2.75-9.18-8.25-9.18
				S662.01,726.52,661.37,731.78z"/>
			<path class="st0" d="M731.02,719.44v29.24h-4.56v-9.18c-1.75,5.38-5.03,9.77-11.23,9.77c-5.67,0-9.06-3.57-9.06-11.17v-18.66
				h4.56v17.02c0,6.14,1.64,9.01,5.61,9.01c5.15,0,10.12-6.32,10.12-17.02v-9.01H731.02z"/>
			<path class="st0" d="M782.3,728.86v19.82h-4.5v-17.31c0-5.67-1.7-8.48-5.67-8.48c-4.91,0-8.54,5.79-8.54,14.39v11.4h-4.44v-17.31
				c0-5.67-1.75-8.48-5.67-8.48c-4.91,0-8.54,5.26-8.54,14.39v11.4h-4.5v-29.24h4.5v7.31c1.11-3.51,4.04-7.84,9.59-7.84
				c4.8,0,7.78,2.92,8.71,8.13c1.7-5.03,5.26-8.13,10-8.13C779.15,718.92,782.3,723.13,782.3,728.86z"/>
			<path class="st0" d="M790.43,743.25h5.5v5.44h-5.5V743.25z M795.75,707.75l-0.82,29.82h-3.51l-0.82-29.82H795.75z"/>
			<path class="st0" d="M823.94,712.08v13.74h18.71v4.21h-18.71v14.33H844v4.33h-24.97v-40.94H844v4.33H823.94z"/>
			<path class="st0" d="M862.89,745.64c3.51,0,5.73-1.23,5.73-4.15c0-3.86-4.5-4.44-8.71-5.56c-5.61-1.52-9.18-3.8-9.18-8.71
				c0-5.15,4.39-8.3,11.11-8.3c6.32,0,11.64,2.75,12.46,10.64h-4.21c-0.35-5.03-4.04-6.96-8.36-6.96c-4.68,0-6.67,2.16-6.67,4.56
				c0,3.22,2.4,4.27,7.66,5.61c5.03,1.23,10.41,3.1,10.41,8.71c0,5.38-4.74,7.78-10.41,7.78c-6.49,0-10.76-3.33-11.17-9.42h4.27
				C856.11,743.66,858.62,745.64,862.89,745.64z"/>
			<path class="st0" d="M921.31,719.44v29.18c0,8.6-4.39,13.51-12.87,13.51c-8.42,0-12.05-5.09-12.4-10.7h4.27
				c0.29,3.16,2.11,6.9,8.25,6.9c6.67,0,8.3-4.33,8.3-10.06v-4.27c-0.76,1.75-3.45,5.26-9.24,5.26c-7.66,0-12.4-6.02-12.4-14.97
				c0-9.53,5.5-15.44,12.69-15.44c4.21,0,7.54,2.05,8.95,5.09v-4.5H921.31z M916.85,734.01c0-6.96-2.87-11.23-8.3-11.23
				c-6.02,0-8.77,5.44-8.77,11.81c0,6.43,2.81,10.88,8.42,10.88C913.77,745.47,916.85,741.2,916.85,734.01z"/>
			<path class="st0" d="M929.67,709.03h5.38v5.15h-5.38V709.03z M930.08,748.68v-29.24h4.56v29.24H930.08z"/>
			<path class="st0" d="M969.6,734.3c0,8.95-4.74,14.97-12.4,14.97c-5.79,0-8.48-3.45-9.3-5.15v4.56h-4.5v-41.52h4.5v16.84
				c1.4-3.1,4.8-5.15,9.01-5.15C964.18,718.86,969.6,724.77,969.6,734.3z M965.09,734.59c0-6.43-2.81-11.87-8.77-11.87
				c-5.56,0-8.42,4.27-8.42,11.17c0,7.37,3.16,11.58,8.66,11.58C962.29,745.47,965.09,741.02,965.09,734.59z"/>
			<path class="st0" d="M991.7,744.88v3.8h-4.21c-5.32,0-8.66-3.39-8.66-9.06v-16.55h-5.56v-3.63h5.56v-6.9l4.56-0.82v7.72h7.13
				v3.63h-7.13v15.91c0,4.04,1.64,5.91,4.97,5.91H991.7z"/>
			<path class="st0" d="M1037.08,719.39l-11.7,29.3h-5.38l-11.7-29.3h5.09l9.3,24.5l9.3-24.5H1037.08z"/>
			<path class="st0" d="M1042.52,709.03h5.38v5.15h-5.38V709.03z M1042.93,748.68v-29.24h4.56v29.24H1042.93z"/>
			<path class="st0" d="M1081.29,739.33c-0.58,5.26-4.68,9.94-12.46,9.94c-9.24,0-14.09-6.9-14.09-15.2
				c0-8.36,4.85-15.15,13.57-15.15c8.25,0,12.87,5.97,12.87,15.32v0.99h-21.81c0.35,6.26,4.04,10.29,9.59,10.29
				c4.39,0,7.31-2.46,8.07-6.2L1081.29,739.33L1081.29,739.33z M1059.42,731.78h17.25c-0.41-5.15-2.75-9.18-8.25-9.18
				S1060.07,726.52,1059.42,731.78z"/>
			<path class="st0" d="M1089.01,748.68v-41.52h4.62v41.52H1089.01z"/>
			<path class="st0" d="M1138.43,744.82v3.86h-22.4v-2.92l15.97-22.51h-14.85v-3.86h20.76v3.04l-15.79,22.4H1138.43z"/>
			<path class="st0" d="M1170.13,719.44v29.24h-4.56v-9.18c-1.75,5.38-5.03,9.77-11.23,9.77c-5.67,0-9.06-3.57-9.06-11.17v-18.66
				h4.56v17.02c0,6.14,1.64,9.01,5.61,9.01c5.15,0,10.12-6.32,10.12-17.02v-9.01H1170.13z"/>
			<path class="st0" d="M1219.25,739.33c-0.58,5.26-4.68,9.94-12.46,9.94c-9.24,0-14.09-6.9-14.09-15.2
				c0-8.36,4.85-15.15,13.57-15.15c8.25,0,12.87,5.97,12.87,15.32v0.99h-21.81c0.35,6.26,4.04,10.29,9.59,10.29
				c4.39,0,7.31-2.46,8.07-6.2L1219.25,739.33L1219.25,739.33z M1197.38,731.78h17.25c-0.41-5.15-2.75-9.18-8.25-9.18
				C1200.89,722.6,1198.02,726.52,1197.38,731.78z"/>
			<path class="st0" d="M1251.82,730.03v18.66h-4.62v-17.02c0-6.2-1.58-9.01-5.61-9.01c-5.09,0-10.12,6.32-10.12,16.96v9.06h-4.5
				v-29.24h4.5v9.18c1.75-5.38,5.03-9.77,11.29-9.77C1248.43,718.86,1251.82,722.43,1251.82,730.03z"/>
			<path class="st0" d="M1275.1,744.88v3.8h-4.21c-5.32,0-8.66-3.39-8.66-9.06v-16.55h-5.56v-3.63h5.56v-6.9l4.56-0.82v7.72h7.13
				v3.63h-7.13v15.91c0,4.04,1.64,5.91,4.97,5.91H1275.1z"/>
			<path class="st0" d="M1305.1,707.16v41.52h-4.5v-4.56c-0.82,1.7-3.51,5.15-9.3,5.15c-7.66,0-12.4-6.02-12.4-14.97
				c0-9.53,5.5-15.44,12.75-15.44c4.21,0,7.54,2.05,8.95,5.15v-16.84H1305.1z M1300.6,733.89c0-6.9-2.87-11.17-8.36-11.17
				c-6.02,0-8.83,5.44-8.83,11.87c0,6.43,2.81,10.88,8.54,10.88C1297.44,745.47,1300.6,741.26,1300.6,733.89z"/>
			<path class="st0" d="M1339.02,739.33c-0.58,5.26-4.68,9.94-12.46,9.94c-9.24,0-14.09-6.9-14.09-15.2
				c0-8.36,4.85-15.15,13.57-15.15c8.25,0,12.87,5.97,12.87,15.32v0.99h-21.81c0.35,6.26,4.04,10.29,9.59,10.29
				c4.39,0,7.31-2.46,8.07-6.2L1339.02,739.33L1339.02,739.33z M1317.15,731.78h17.25c-0.41-5.15-2.75-9.18-8.25-9.18
				S1317.79,726.52,1317.15,731.78z"/>
			<path class="st0" d="M1359.08,722.72c-5.91,0-9.36,5.2-9.36,11.4c0,6.67,3.86,11.35,9.88,11.35c4.85,0,7.19-2.81,7.95-6.55h4.44
				c-0.99,6.14-5.26,10.35-12.46,10.35c-9.24,0-14.33-6.84-14.33-15.2c0-8.36,5.26-15.15,13.8-15.15c6.96,0,11.93,4.33,12.63,10.76
				h-4.44C1366.56,725.29,1363.34,722.72,1359.08,722.72z"/>
			<path class="st0" d="M1387.09,735.53l-3.39,3.57v9.59h-4.33v-41.52h4.33v26.08l13.22-13.8h5.5l-12.4,12.98l13.1,16.26h-5.32
				L1387.09,735.53z"/>
			<path class="st0" d="M1432.29,739.33c-0.58,5.26-4.68,9.94-12.46,9.94c-9.24,0-14.09-6.9-14.09-15.2
				c0-8.36,4.85-15.15,13.57-15.15c8.25,0,12.87,5.97,12.87,15.32v0.99h-21.81c0.35,6.26,4.04,10.29,9.59,10.29
				c4.39,0,7.31-2.46,8.07-6.2L1432.29,739.33L1432.29,739.33z M1410.42,731.78h17.25c-0.41-5.15-2.75-9.18-8.25-9.18
				S1411.06,726.52,1410.42,731.78z"/>
			<path class="st0" d="M1464.87,730.03v18.66h-4.62v-17.02c0-6.2-1.58-9.01-5.61-9.01c-5.09,0-10.12,6.32-10.12,16.96v9.06h-4.5
				v-29.24h4.5v9.18c1.75-5.38,5.03-9.77,11.29-9.77C1461.47,718.86,1464.87,722.43,1464.87,730.03z"/>
			<path class="st0" d="M1473.05,743.25h5.5v5.44h-5.5V743.25z"/>
		</g>
		<g>
			<path class="st0" d="M358.69,93.72l-23.82,102.34h-13.45l-28.79-90.35l-28.66,90.35h-13.61L226.54,93.72h12.28L257.83,181
				l27.78-87.27h14.17L327.4,181l19.01-87.27H358.69z"/>
			<path class="st0" d="M371.71,96.94h13.45v12.87h-13.45V96.94z M372.73,196.06v-73.1h11.4v73.1H372.73z"/>
			<path class="st0" d="M402.71,196.06V92.26h11.54v103.8H402.71z"/>
			<path class="st0" d="M432.67,196.06V92.26h11.54v103.8H432.67z"/>
			<path class="st0" d="M481.95,163.18l-8.48,8.93v23.98h-10.82V92.26h10.82v65.21l33.04-34.5h13.74l-30.99,32.46l32.75,40.64
				h-13.29L481.95,163.18z"/>
			<path class="st0" d="M525.22,159.67c0-22.22,13.45-38.01,34.64-38.01s34.64,15.79,34.64,38.01c0,22.07-13.45,37.86-34.64,37.86
				S525.22,181.74,525.22,159.67z M583.26,159.67c0-16.22-8.32-28.66-23.39-28.66s-23.39,12.42-23.39,28.66
				c0,16.08,8.32,28.5,23.39,28.5S583.26,175.75,583.26,159.67z"/>
			<path class="st0" d="M712.95,146.51v49.55H701.7v-43.28c0-14.17-4.25-21.19-14.17-21.19c-12.28,0-21.35,14.46-21.35,35.97v28.5
				h-11.11v-43.28c0-14.17-4.39-21.19-14.17-21.19c-12.28,0-21.35,13.16-21.35,35.97v28.5H608.3v-73.1h11.25v18.27
				c2.77-8.77,10.08-19.59,23.98-19.59c11.99,0,19.43,7.31,21.77,20.31c4.23-12.57,13.16-20.31,24.99-20.31
				C705.05,121.66,712.95,132.18,712.95,146.51z"/>
			<path class="st0" d="M836.05,146.51v49.55H824.8v-43.28c0-14.17-4.25-21.19-14.17-21.19c-12.28,0-21.35,14.46-21.35,35.97v28.5
				h-11.11v-43.28c0-14.17-4.39-21.19-14.17-21.19c-12.28,0-21.35,13.16-21.35,35.97v28.5h-11.25v-73.1h11.25v18.27
				c2.77-8.77,10.08-19.59,23.98-19.59c11.99,0,19.43,7.31,21.77,20.31c4.23-12.57,13.16-20.31,24.99-20.31
				C828.15,121.66,836.05,132.18,836.05,146.51z"/>
			<path class="st0" d="M917.33,172.67c-1.46,13.16-11.7,24.85-31.13,24.85c-23.1,0-35.22-17.25-35.22-38.01
				c0-20.9,12.12-37.86,33.92-37.86c20.62,0,32.16,14.91,32.16,38.3v2.48h-54.52c0.88,15.63,10.1,25.73,23.98,25.73
				c10.96,0,18.27-6.14,20.18-15.5H917.33z M862.66,153.82h43.12c-1.01-12.87-6.86-22.94-20.6-22.94
				C871.43,130.88,864.25,140.66,862.66,153.82z"/>
			<path class="st0" d="M995.41,149.44v46.63h-11.54v-42.53c0-15.5-3.94-22.51-14.04-22.51c-12.71,0-25.28,15.79-25.28,42.4v22.65
				H933.3v-73.1h11.25v22.94c4.39-13.45,12.57-24.41,28.21-24.41C986.93,121.5,995.41,130.43,995.41,149.44z"/>
			<path class="st0" d="M230.03,234.35h13.45v12.87h-13.45V234.35z M231.07,333.47v-73.1h11.4v73.1H231.07z"/>
			<path class="st0" d="M365.71,283.92v49.55h-11.25V290.2c0-14.17-4.25-21.19-14.17-21.19c-12.28,0-21.35,14.46-21.35,35.97v28.5
				h-11.11V290.2c0-14.17-4.39-21.19-14.17-21.19c-12.28,0-21.35,13.16-21.35,35.97v28.5h-11.25v-73.1h11.25v18.27
				c2.77-8.77,10.08-19.59,23.98-19.59c11.99,0,19.43,7.31,21.77,20.31c4.23-12.57,13.16-20.31,24.99-20.31
				C357.81,259.07,365.71,269.59,365.71,283.92z"/>
			<path class="st0" d="M484.58,275.29l-4.68,25.73h15.5v9.06h-17.25l-4.25,23.39h-10.37l4.23-23.39h-27.04l-4.25,23.39H426.1
				l4.23-23.39h-13v-9.06h14.76l4.68-25.73h-15.5v-9.06h17.25l4.23-23.39h10.37l-4.23,23.39h27.04l4.23-23.39h10.37l-4.23,23.39h13
				v9.06H484.58z M474.19,275.29h-27.04l-4.68,25.73h27.04L474.19,275.29z"/>
			<path class="st0" d="M585.46,263.88c0,18.56-10.97,33.63-36.26,33.63h-19.3v35.97h-12.28V231.13h12.28h19.3
				C574.64,231.13,585.46,245.91,585.46,263.88z M573.18,263.88c0-12.12-6.43-22.07-21.77-22.07h-21.5v45.03h21.48
				C566.88,286.85,573.18,276.03,573.18,263.88z"/>
			<path class="st0" d="M673.9,333.47h-13L653,309.36c-5.85-18.13-16.22-16.37-40.49-16.37v40.49h-12.14V231.13h33.92
				c25.87,0,35.38,15.36,35.38,30.25c0,12.44-6.43,23.39-21.77,27.19c8.32,2.48,14.33,7.89,18.13,20.02L673.9,333.47z M612.5,241.95
				v40.49h23.82c15.34,0,21.05-11.11,21.05-20.6c0-9.65-5.85-19.88-21.05-19.88L612.5,241.95L612.5,241.95z"/>
			<path class="st0" d="M684.13,282.3c0-32.16,17.97-52.63,47.95-52.63c29.83,0,47.8,20.47,47.8,52.63s-17.97,52.63-47.8,52.63
				C702.13,334.94,684.13,314.47,684.13,282.3z M767.31,282.3c0-25.44-13.45-41.95-35.22-41.95s-35.38,16.51-35.38,41.95
				c0,25.44,13.59,41.81,35.38,41.81C753.86,324.12,767.31,307.74,767.31,282.3z"/>
			<path class="st0" d="M867.47,241.95h-34.21v91.52h-12.28v-91.52h-34.21v-10.82h80.7L867.47,241.95L867.47,241.95z"/>
			<path class="st0" d="M874.2,282.3c0-32.16,17.97-52.63,47.95-52.63c29.83,0,47.8,20.47,47.8,52.63s-17.97,52.63-47.8,52.63
				C892.19,334.94,874.2,314.47,874.2,282.3z M957.37,282.3c0-25.44-13.45-41.95-35.22-41.95c-21.79,0-35.38,16.51-35.38,41.95
				c0,25.44,13.59,41.81,35.38,41.81C943.92,324.12,957.37,307.74,957.37,282.3z"/>
			<path class="st0" d="M1057.53,241.95h-34.21v91.52h-12.28v-91.52h-34.21v-10.82h80.7L1057.53,241.95L1057.53,241.95z"/>
			<path class="st0" d="M1152.85,231.13l-49.55,102.34h-13.45l18.85-39.03l-40.35-63.3h14.33l32.32,51.01l24.41-51.01h13.45V231.13z
				"/>
			<path class="st0" d="M1234.86,263.88c0,18.56-10.96,33.63-36.26,33.63h-19.3v35.97h-12.28V231.13h12.28h19.3
				C1224.04,231.13,1234.86,245.91,1234.86,263.88z M1222.58,263.88c0-12.12-6.43-22.07-21.77-22.07h-21.48v45.03h21.48
				C1216.31,286.85,1222.58,276.03,1222.58,263.88z"/>
		</g>
	</g>
</g>
<g id="PFAD_1_" class="st1">
	<g class="st2">
		<g>
			<g>
				<path class="st0" d="M362.69,126.62c0,18.64-11.02,33.77-36.42,33.77h-19.38v36.12h-12.33V93.73h12.33h19.38
					C351.83,93.73,362.69,108.57,362.69,126.62z M350.36,126.62c0-12.18-6.46-22.16-21.87-22.16h-21.59v45.23h21.59
					C344.05,149.66,350.36,138.82,350.36,126.62z"/>
				<path class="st0" d="M372.97,145.12c0-32.3,18.05-52.86,48.16-52.86c29.95,0,48.01,20.56,48.01,52.86s-18.05,52.86-48.01,52.86
					C391.04,197.98,372.97,177.43,372.97,145.12z M456.53,145.12c0-25.55-13.51-42.13-35.38-42.13c-21.87,0-35.53,16.58-35.53,42.13
					s13.65,42,35.53,42C443.02,187.12,456.53,170.67,456.53,145.12z"/>
				<path class="st0" d="M569.14,145.12c0,30.54-15.86,51.39-49.77,51.39h-31.13V93.73h31.13
					C553.15,93.73,569.14,114.58,569.14,145.12z M556.38,144.83c0-20.26-7.05-40.53-38.61-40.53h-17.33v81.64h17.33
					C548.45,185.94,556.38,166.11,556.38,144.83z"/>
				<path class="st0" d="M631.99,197.98c-30.54,0-48.01-21.73-48.01-51.82c0-31.27,18.34-53.88,48.3-53.88
					c23.63,0,38.31,14.1,41.41,34.79h-12.63c-2.21-13.51-11.9-23.92-29.21-23.92c-22.75,0-35.53,18.5-35.53,42.88
					c0,23.92,12.92,41.25,36.42,41.25c16.58,0,26.27-8.52,29.5-25.84h12.33C671.5,185.49,655.34,197.98,631.99,197.98z"/>
				<path class="st0" d="M748.28,170.08h-44.78l-9.4,26.43h-12.76l37.43-102.79h14.23l37.43,102.79h-12.76L748.28,170.08z
					 M744.46,159.65l-18.64-52.27l-18.64,52.27H744.46z"/>
				<path class="st0" d="M818.33,187.25c13.35,0,18.93-5.74,18.93-14.98c0-11-7.34-15.11-28.78-20.85
					c-19.97-5.15-30.39-13.8-30.39-30.09c0-18.5,17.03-29.07,36.12-29.07c24.08,0,39.06,11.16,41.41,35.96h-12.2
					c-1.76-14.82-9.4-25.1-29.21-25.1c-12.47,0-23.92,6.03-23.92,18.21c0,10.87,6.17,16,27.61,21.73
					c16.74,4.25,31.85,10.87,31.85,28.78c0,16.45-12.04,26.14-32.01,26.14c-22.46,0-35.24-12.49-36.85-31.56h12.18
					C794.68,180.66,803.79,187.25,818.33,187.25z"/>
				<path class="st0" d="M943.87,104.6h-34.36v91.92h-12.33V104.6h-34.36V93.73h81.05L943.87,104.6L943.87,104.6z"/>
			</g>
			<g>
				<path class="st0" d="M397.17,261.04h-4.82v-29.84c-3,2.64-7.52,4.35-13.98,4.52v-4.11c6.7-0.35,14.62-3.05,14.62-11.69h4.17
					C397.17,219.93,397.17,261.04,397.17,261.04z"/>
				<path class="st0" d="M448.91,256.64v4.41h-26.02v-41.11H428v36.71H448.91z"/>
				<path class="st0" d="M479.4,240.55v20.5h-4.41v-5.46c-1.12,2.29-4.29,6.05-10.28,6.05c-5.29,0-9.63-2.88-9.63-8.34
					c0-5.29,3.7-7.58,11.63-8.75c5.58-0.88,8.28-1.41,8.28-4.52c0-3-2.76-5.17-6.7-5.17c-4.76,0-7.11,2.53-7.46,6.93h-4.41
					c0.23-5.76,3.76-10.63,11.98-10.63C474.58,231.15,479.4,234.26,479.4,240.55z M474.99,248.01v-2.47
					c-1.82,1.06-4.46,1.7-7.46,2.23c-5.05,0.94-7.99,2.17-7.99,5.52c0,3.29,2.82,4.7,6.05,4.7
					C470.64,257.99,474.99,254.35,474.99,248.01z"/>
				<path class="st0" d="M502.6,257.23v3.82h-4.23c-5.34,0-8.69-3.41-8.69-9.1v-16.62h-5.58v-3.64h5.58v-6.93l4.58-0.82v7.75h7.17
					v3.64h-7.17v15.98c0,4.05,1.64,5.93,4.99,5.93C499.25,257.23,502.6,257.23,502.6,257.23z"/>
				<path class="st0" d="M533.08,251.65c-0.59,5.29-4.7,9.98-12.51,9.98c-9.28,0-14.15-6.93-14.15-15.27
					c0-8.4,4.87-15.21,13.63-15.21c8.28,0,12.92,5.99,12.92,15.39v1h-21.91c0.35,6.28,4.05,10.34,9.63,10.34
					c4.41,0,7.34-2.47,8.11-6.23H533.08z M511.11,244.07h17.33c-0.41-5.17-2.76-9.22-8.28-9.22
					C514.64,234.85,511.76,238.78,511.11,244.07z"/>
				<path class="st0" d="M589.41,219.93v41.11h-6.17l-21.67-35.48v35.48h-4.82v-41.11h6.23l21.61,35.42v-35.42H589.41z"/>
				<path class="st0" d="M598.69,221.22h5.4v5.17h-5.4V221.22z M599.1,261.04v-29.37h4.58v29.37H599.1z"/>
				<path class="st0" d="M637.27,231.68v29.31c0,8.63-4.41,13.57-12.92,13.57c-8.46,0-12.1-5.11-12.45-10.75h4.29
					c0.29,3.17,2.11,6.93,8.28,6.93c6.7,0,8.34-4.35,8.34-10.1v-4.29c-0.76,1.76-3.47,5.29-9.28,5.29
					c-7.69,0-12.45-6.05-12.45-15.04c0-9.57,5.52-15.51,12.75-15.51c4.23,0,7.58,2.06,8.99,5.11v-4.52H637.27z M632.81,246.3
					c0-6.99-2.88-11.28-8.34-11.28c-6.05,0-8.81,5.46-8.81,11.86c0,6.46,2.82,10.92,8.46,10.92
					C629.7,257.81,632.81,253.53,632.81,246.3z"/>
				<path class="st0" d="M671.05,242.31v18.74h-4.64v-17.09c0-6.23-1.59-9.05-5.64-9.05c-5.11,0-10.16,6.34-10.16,17.03v9.1h-4.52
					v-41.7h4.52v21.56c1.76-5.4,5.05-9.81,11.34-9.81C667.64,231.09,671.05,234.67,671.05,242.31z"/>
				<path class="st0" d="M694.42,257.23v3.82h-4.23c-5.34,0-8.69-3.41-8.69-9.1v-16.62h-5.58v-3.64h5.58v-6.93l4.58-0.82v7.75h7.17
					v3.64h-7.17v15.98c0,4.05,1.64,5.93,4.99,5.93C691.07,257.23,694.42,257.23,694.42,257.23z"/>
				<path class="st0" d="M742.94,224.28h-13.74v36.77h-4.93v-36.77h-13.74v-4.35h32.42L742.94,224.28L742.94,224.28z"/>
				<path class="st0" d="M766.31,240.55v20.5h-4.41v-5.46c-1.12,2.29-4.29,6.05-10.28,6.05c-5.29,0-9.63-2.88-9.63-8.34
					c0-5.29,3.7-7.58,11.63-8.75c5.58-0.88,8.28-1.41,8.28-4.52c0-3-2.76-5.17-6.7-5.17c-4.76,0-7.11,2.53-7.46,6.93h-4.41
					c0.23-5.76,3.76-10.63,11.98-10.63C761.5,231.15,766.31,234.26,766.31,240.55z M761.91,248.01v-2.47
					c-1.82,1.06-4.46,1.7-7.46,2.23c-5.05,0.94-7.99,2.17-7.99,5.52c0,3.29,2.82,4.7,6.05,4.7
					C757.56,257.99,761.91,254.35,761.91,248.01z"/>
				<path class="st0" d="M774.77,261.04v-41.7h4.64v41.7C779.41,261.04,774.77,261.04,774.77,261.04z"/>
				<path class="st0" d="M795.91,247.83l-3.41,3.58v9.63h-4.35v-41.7h4.35v26.2l13.27-13.86h5.52l-12.45,13.04l13.16,16.33h-5.34
					L795.91,247.83z"/>
				<path class="st0" d="M873.56,241.13v19.91h-4.52v-17.39c0-5.7-1.7-8.52-5.7-8.52c-4.93,0-8.58,5.81-8.58,14.45v11.45h-4.46
					v-17.39c0-5.7-1.76-8.52-5.7-8.52c-4.93,0-8.58,5.29-8.58,14.45v11.45h-4.52v-29.37h4.52v7.34c1.12-3.52,4.05-7.87,9.63-7.87
					c4.82,0,7.81,2.94,8.75,8.16c1.7-5.05,5.29-8.16,10.04-8.16C870.39,231.15,873.56,235.38,873.56,241.13z"/>
				<path class="st0" d="M881.84,221.22h5.4v5.17h-5.4V221.22z M882.25,261.04v-29.37h4.58v29.37H882.25z"/>
				<path class="st0" d="M911.33,257.23v3.82h-4.23c-5.34,0-8.69-3.41-8.69-9.1v-16.62h-5.58v-3.64h5.58v-6.93l4.58-0.82v7.75h7.17
					v3.64h-7.17v15.98c0,4.05,1.64,5.93,4.99,5.93C907.98,257.23,911.33,257.23,911.33,257.23z"/>
				<path class="st0" d="M957.67,256.64v4.41h-26.02v-41.11h5.11v36.71H957.67z"/>
				<path class="st0" d="M964.36,221.22h5.4v5.17h-5.4V221.22z M964.78,261.04v-29.37h4.58v29.37H964.78z"/>
				<path class="st0" d="M988.92,257.99c3.52,0,5.76-1.23,5.76-4.17c0-3.88-4.52-4.46-8.75-5.58c-5.64-1.53-9.22-3.82-9.22-8.75
					c0-5.17,4.41-8.34,11.16-8.34c6.34,0,11.69,2.76,12.51,10.69h-4.23c-0.35-5.05-4.05-6.99-8.4-6.99c-4.7,0-6.7,2.17-6.7,4.58
					c0,3.23,2.41,4.29,7.69,5.64c5.05,1.23,10.45,3.11,10.45,8.75c0,5.4-4.76,7.81-10.45,7.81c-6.52,0-10.81-3.35-11.22-9.46h4.29
					C982.1,255.99,984.63,257.99,988.92,257.99z"/>
				<path class="st0" d="M1030.73,240.55v20.5h-4.41v-5.46c-1.12,2.29-4.29,6.05-10.28,6.05c-5.29,0-9.63-2.88-9.63-8.34
					c0-5.29,3.7-7.58,11.63-8.75c5.58-0.88,8.28-1.41,8.28-4.52c0-3-2.76-5.17-6.7-5.17c-4.76,0-7.11,2.53-7.46,6.93h-4.41
					c0.23-5.76,3.76-10.63,11.98-10.63C1025.92,231.15,1030.73,234.26,1030.73,240.55z M1026.33,248.01v-2.47
					c-1.82,1.06-4.46,1.7-7.46,2.23c-5.05,0.94-7.99,2.17-7.99,5.52c0,3.29,2.82,4.7,6.05,4.7
					C1021.98,257.99,1026.33,254.35,1026.33,248.01z"/>
				<path class="st0" d="M1063.74,242.48l-3.52,4.05v14.51h-4.87v-41.11h4.87v19.5l17.09-19.5h6.23l-16.56,18.91l17.62,22.2h-5.99
					L1063.74,242.48z"/>
				<path class="st0" d="M1087.18,246.42c0-8.93,5.4-15.27,13.92-15.27c8.52,0,13.92,6.34,13.92,15.27c0,8.87-5.4,15.21-13.92,15.21
					C1092.58,261.63,1087.18,255.29,1087.18,246.42z M1110.5,246.42c0-6.52-3.35-11.51-9.4-11.51c-6.05,0-9.4,4.99-9.4,11.51
					c0,6.46,3.35,11.45,9.4,11.45C1107.15,257.87,1110.5,252.88,1110.5,246.42z"/>
				<path class="st0" d="M1134.99,234.97c-5.93,0-9.4,5.23-9.4,11.45c0,6.7,3.88,11.39,9.93,11.39c4.88,0,7.22-2.82,7.99-6.58h4.46
					c-1,6.17-5.29,10.4-12.51,10.4c-9.28,0-14.39-6.87-14.39-15.27c0-8.4,5.29-15.21,13.86-15.21c6.99,0,11.98,4.35,12.69,10.81
					h-4.46C1142.51,237.55,1139.28,234.97,1134.99,234.97z"/>
				<path class="st0" d="M1180.33,242.31v18.74h-4.64v-17.09c0-6.23-1.59-9.05-5.64-9.05c-5.11,0-10.16,6.34-10.16,17.03v9.1h-4.52
					v-41.7h4.52v21.56c1.76-5.4,5.05-9.81,11.34-9.81C1176.92,231.09,1180.33,234.67,1180.33,242.31z"/>
				<path class="st0" d="M378.67,331.53l-0.06-3.29l10.81-9.16c6.11-5.11,11.45-9.75,11.45-16.92c0-4.82-3.23-8.22-8.11-8.22
					c-6.28,0-8.63,5.05-8.22,11.39h-4.82c-0.59-7.75,3.41-15.51,13.1-15.51c8.22,0,12.8,5.4,12.8,12.57
					c0,7.99-5.46,13.63-13.22,20.09l-5.93,4.99h20.15v4.05L378.67,331.53L378.67,331.53z"/>
				<path class="st0" d="M445.39,327.83c5.34,0,7.58-2.29,7.58-5.99c0-4.41-2.94-6.05-11.51-8.34c-7.99-2.06-12.16-5.52-12.16-12.04
					c0-7.4,6.81-11.63,14.45-11.63c9.63,0,15.62,4.46,16.56,14.39h-4.87c-0.7-5.93-3.76-10.04-11.69-10.04
					c-4.99,0-9.57,2.41-9.57,7.28c0,4.35,2.47,6.4,11.04,8.69c6.7,1.7,12.75,4.35,12.75,11.51c0,6.58-4.82,10.45-12.8,10.45
					c-8.99,0-14.1-4.99-14.74-12.63h4.87C435.93,325.18,439.57,327.83,445.39,327.83z"/>
				<path class="st0" d="M480.81,327.71v3.82h-4.23c-5.34,0-8.69-3.41-8.69-9.1V305.8h-5.58v-3.64h5.58v-6.93l4.58-0.82v7.75h7.17
					v3.64h-7.17v15.98c0,4.05,1.64,5.93,4.99,5.93H480.81z"/>
				<path class="st0" d="M511.29,302.16v29.37h-4.58v-9.22c-1.76,5.4-5.05,9.81-11.28,9.81c-5.7,0-9.1-3.58-9.1-11.22v-18.74h4.58
					v17.09c0,6.17,1.64,9.05,5.64,9.05c5.17,0,10.16-6.34,10.16-17.09v-9.05H511.29z"/>
				<path class="st0" d="M544.71,289.82v41.7h-4.52v-4.58c-0.82,1.7-3.52,5.17-9.34,5.17c-7.69,0-12.45-6.05-12.45-15.04
					c0-9.57,5.52-15.51,12.8-15.51c4.23,0,7.58,2.06,8.99,5.17v-16.92C540.19,289.82,544.71,289.82,544.71,289.82z M540.19,316.67
					c0-6.93-2.88-11.22-8.4-11.22c-6.05,0-8.87,5.46-8.87,11.92s2.82,10.92,8.58,10.92C537.01,328.3,540.19,324.07,540.19,316.67z"
					/>
				<path class="st0" d="M553.11,291.7h5.4v5.17h-5.4V291.7z M553.52,331.53v-29.37h4.58v29.37H553.52z"/>
				<path class="st0" d="M592.05,322.13c-0.59,5.29-4.7,9.98-12.51,9.98c-9.28,0-14.15-6.93-14.15-15.27
					c0-8.4,4.87-15.21,13.63-15.21c8.28,0,12.92,5.99,12.92,15.39v1h-21.91c0.35,6.28,4.05,10.34,9.63,10.34
					c4.41,0,7.34-2.47,8.11-6.23L592.05,322.13L592.05,322.13z M570.08,314.55h17.33c-0.41-5.17-2.76-9.22-8.28-9.22
					C573.61,305.33,570.73,309.27,570.08,314.55z"/>
				<path class="st0" d="M624.76,312.79v18.74h-4.64v-17.09c0-6.23-1.59-9.05-5.64-9.05c-5.11,0-10.16,6.34-10.16,17.03v9.1h-4.52
					v-29.37h4.52v9.22c1.76-5.4,5.05-9.81,11.34-9.81C621.36,301.57,624.76,305.15,624.76,312.79z"/>
				<path class="st0" d="M658.24,302.16v29.31c0,8.63-4.41,13.57-12.92,13.57c-8.46,0-12.1-5.11-12.45-10.75h4.29
					c0.29,3.17,2.11,6.93,8.28,6.93c6.7,0,8.34-4.35,8.34-10.1v-4.29c-0.76,1.76-3.47,5.29-9.28,5.29
					c-7.69,0-12.45-6.05-12.45-15.04c0-9.57,5.52-15.51,12.75-15.51c4.23,0,7.58,2.06,8.99,5.11v-4.52L658.24,302.16L658.24,302.16z
					 M653.78,316.78c0-6.99-2.88-11.28-8.34-11.28c-6.05,0-8.81,5.46-8.81,11.86c0,6.46,2.82,10.92,8.46,10.92
					C650.67,328.3,653.78,324.01,653.78,316.78z"/>
				<path class="st0" d="M690.08,311.03v20.5h-4.41v-5.46c-1.12,2.29-4.29,6.05-10.28,6.05c-5.29,0-9.63-2.88-9.63-8.34
					c0-5.29,3.7-7.58,11.63-8.75c5.58-0.88,8.28-1.41,8.28-4.52c0-3-2.76-5.17-6.7-5.17c-4.76,0-7.11,2.53-7.46,6.93h-4.41
					c0.23-5.76,3.76-10.63,11.98-10.63C685.26,301.63,690.08,304.74,690.08,311.03z M685.67,318.49v-2.47
					c-1.82,1.06-4.46,1.7-7.46,2.23c-5.05,0.94-7.99,2.17-7.99,5.52c0,3.29,2.82,4.7,6.05,4.7
					C681.32,328.47,685.67,324.83,685.67,318.49z"/>
				<path class="st0" d="M723.85,312.79v18.74h-4.64v-17.09c0-6.23-1.59-9.05-5.64-9.05c-5.11,0-10.16,6.34-10.16,17.03v9.1h-4.52
					v-29.37h4.52v9.22c1.76-5.4,5.05-9.81,11.34-9.81C720.44,301.57,723.85,305.15,723.85,312.79z"/>
				<path class="st0" d="M757.33,302.16v29.31c0,8.63-4.41,13.57-12.92,13.57c-8.46,0-12.1-5.11-12.45-10.75h4.29
					c0.29,3.17,2.11,6.93,8.28,6.93c6.7,0,8.34-4.35,8.34-10.1v-4.29c-0.76,1.76-3.47,5.29-9.28,5.29
					c-7.69,0-12.45-6.05-12.45-15.04c0-9.57,5.52-15.51,12.75-15.51c4.23,0,7.58,2.06,8.99,5.11v-4.52L757.33,302.16L757.33,302.16z
					 M752.86,316.78c0-6.99-2.88-11.28-8.34-11.28c-6.05,0-8.81,5.46-8.81,11.86c0,6.46,2.82,10.92,8.46,10.92
					C749.75,328.3,752.86,324.01,752.86,316.78z"/>
				<path class="st0" d="M782.05,331.53v-41.11h4.93v41.11H782.05z"/>
				<path class="st0" d="M821.58,312.79v18.74h-4.64v-17.09c0-6.23-1.59-9.05-5.64-9.05c-5.11,0-10.16,6.34-10.16,17.03v9.1h-4.52
					v-29.37h4.52v9.22c1.76-5.4,5.05-9.81,11.34-9.81C818.18,301.57,821.58,305.15,821.58,312.79z"/>
				<path class="st0" d="M837.21,300.16v2h7.22v3.64h-7.22v25.73h-4.58V305.8h-5.34v-3.64h5.34v-2.58c0-5.58,3.41-9.16,8.75-9.16
					h4.41v3.76h-3.58C838.85,294.17,837.21,296.17,837.21,300.16z"/>
				<path class="st0" d="M848.54,316.9c0-8.93,5.4-15.27,13.92-15.27s13.92,6.34,13.92,15.27c0,8.87-5.4,15.21-13.92,15.21
					S848.54,325.77,848.54,316.9z M871.86,316.9c0-6.52-3.35-11.51-9.4-11.51s-9.4,4.99-9.4,11.51c0,6.46,3.35,11.45,9.4,11.45
					S871.86,323.36,871.86,316.9z"/>
				<path class="st0" d="M894.47,328.47c3.52,0,5.76-1.23,5.76-4.17c0-3.88-4.52-4.46-8.75-5.58c-5.64-1.53-9.22-3.82-9.22-8.75
					c0-5.17,4.41-8.34,11.16-8.34c6.34,0,11.69,2.76,12.51,10.69h-4.23c-0.35-5.05-4.05-6.99-8.4-6.99c-4.7,0-6.7,2.17-6.7,4.58
					c0,3.23,2.41,4.29,7.69,5.64c5.05,1.23,10.45,3.11,10.45,8.75c0,5.4-4.76,7.81-10.45,7.81c-6.52,0-10.81-3.35-11.22-9.46h4.29
					C887.66,326.47,890.18,328.47,894.47,328.47z"/>
				<path class="st0" d="M406.1,391.61c0,5.93-4.7,10.98-12.86,10.98c-8.4,0-12.86-4.76-13.63-12.28h4.76
					c0.59,5.87,4.17,8.11,8.99,8.11c5.4,0,7.99-3.29,7.99-6.99c0-4.11-2.82-7.46-8.52-7.46h-3.52v-3.88h3.64
					c6.05,0,9.4-3.17,9.4-7.69c0-5.23-3.88-7.93-8.99-7.93c-5.52,0-9.98,3.11-10.34,9.46h-4.52c0.29-8.75,6.23-13.63,14.62-13.63
					c7.75,0,14.04,4.11,14.04,11.92c0,5.11-3.17,8.46-7.46,9.93C403.45,383.74,406.1,387.09,406.1,391.61z"/>
				<path class="st0" d="M458.84,391.2c0,6.52-3.76,10.81-12.22,10.81h-10.04h-4.82v-41.11h4.82h11.39
					c8.81,0,12.69,4.29,12.69,10.57c0,4.82-2.23,8.93-9.1,10.22C456.9,383.33,458.84,386.97,458.84,391.2z M436.58,365.12v14.15
					h10.98c4.99,0,8.34-2.82,8.34-7.58c0-4.05-2.47-6.58-7.99-6.58H436.58z M453.85,390.79c0-4.52-3.41-7.34-8.87-7.34h-8.4v14.27
					h9.4C451.38,397.72,453.85,395.08,453.85,390.79z"/>
				<path class="st0" d="M466.12,387.38c0-8.93,5.4-15.27,13.92-15.27c8.52,0,13.92,6.34,13.92,15.27c0,8.87-5.4,15.21-13.92,15.21
					C471.53,402.59,466.12,396.25,466.12,387.38z M489.44,387.38c0-6.52-3.35-11.51-9.4-11.51c-6.05,0-9.4,4.99-9.4,11.51
					c0,6.46,3.35,11.45,9.4,11.45C486.09,398.84,489.44,393.84,489.44,387.38z"/>
				<path class="st0" d="M525.8,383.27v18.74h-4.64v-17.09c0-6.23-1.59-9.05-5.64-9.05c-5.11,0-10.16,6.34-10.16,17.03v9.1h-4.52
					v-29.37h4.52v9.22c1.76-5.4,5.05-9.81,11.34-9.81C522.39,372.05,525.8,375.63,525.8,383.27z"/>
				<path class="st0" d="M559.27,372.64v29.37h-4.58v-9.22c-1.76,5.4-5.05,9.81-11.28,9.81c-5.7,0-9.1-3.58-9.1-11.22v-18.74h4.58
					v17.09c0,6.17,1.64,9.05,5.64,9.05c5.17,0,10.16-6.34,10.16-17.09v-9.05H559.27z"/>
				<path class="st0" d="M578.83,398.95c3.52,0,5.76-1.23,5.76-4.17c0-3.88-4.52-4.46-8.75-5.58c-5.64-1.53-9.22-3.82-9.22-8.75
					c0-5.17,4.41-8.34,11.16-8.34c6.34,0,11.69,2.76,12.51,10.69h-4.23c-0.35-5.05-4.05-6.99-8.4-6.99c-4.7,0-6.7,2.17-6.7,4.58
					c0,3.23,2.41,4.29,7.69,5.64c5.05,1.23,10.45,3.11,10.45,8.75c0,5.4-4.76,7.81-10.45,7.81c-6.52,0-10.81-3.35-11.22-9.46h4.29
					C572.02,396.96,574.55,398.95,578.83,398.95z"/>
				<path class="st0" d="M605.15,370.64v2h7.22v3.64h-7.22v25.73h-4.58v-25.73h-5.34v-3.64h5.34v-2.58c0-5.58,3.41-9.16,8.75-9.16
					h4.41v3.76h-3.58C606.79,364.65,605.15,366.65,605.15,370.64z"/>
				<path class="st0" d="M616.48,387.38c0-8.93,5.4-15.27,13.92-15.27s13.92,6.34,13.92,15.27c0,8.87-5.4,15.21-13.92,15.21
					S616.48,396.25,616.48,387.38z M639.8,387.38c0-6.52-3.35-11.51-9.4-11.51s-9.4,4.99-9.4,11.51c0,6.46,3.35,11.45,9.4,11.45
					S639.8,393.84,639.8,387.38z"/>
				<path class="st0" d="M651.84,402.01v-41.7h4.64v41.7H651.84z"/>
				<path class="st0" d="M690.08,372.64v29.31c0,8.63-4.41,13.57-12.92,13.57c-8.46,0-12.1-5.11-12.45-10.75h4.29
					c0.29,3.17,2.11,6.93,8.28,6.93c6.7,0,8.34-4.35,8.34-10.1v-4.29c-0.76,1.76-3.47,5.29-9.28,5.29
					c-7.69,0-12.45-6.05-12.45-15.04c0-9.57,5.52-15.51,12.75-15.51c4.23,0,7.58,2.06,8.99,5.11v-4.52L690.08,372.64L690.08,372.64z
					 M685.61,387.26c0-6.99-2.88-11.28-8.34-11.28c-6.05,0-8.81,5.46-8.81,11.86c0,6.46,2.82,10.92,8.46,10.92
					C682.5,398.78,685.61,394.49,685.61,387.26z"/>
				<path class="st0" d="M724.2,392.61c-0.59,5.29-4.7,9.98-12.51,9.98c-9.28,0-14.15-6.93-14.15-15.27
					c0-8.4,4.88-15.21,13.63-15.21c8.28,0,12.92,5.99,12.92,15.39v1h-21.91c0.35,6.28,4.05,10.34,9.63,10.34
					c4.41,0,7.34-2.47,8.11-6.23H724.2z M702.23,385.03h17.33c-0.41-5.17-2.76-9.22-8.28-9.22S702.88,379.75,702.23,385.03z"/>
				<path class="st0" d="M409.21,463.91h-6.58v8.58h-4.58v-8.58H378.2v-3.17l17.86-29.37h6.58v28.54h6.58V463.91z M398.05,459.92
					v-24.43l-14.57,24.43H398.05z"/>
				<path class="st0" d="M457.72,468.08v4.41H431.7v-41.11h5.11v36.71H457.72z"/>
				<path class="st0" d="M488.21,451.99v20.5h-4.41v-5.46c-1.12,2.29-4.29,6.05-10.28,6.05c-5.29,0-9.63-2.88-9.63-8.34
					c0-5.29,3.7-7.58,11.63-8.75c5.58-0.88,8.28-1.41,8.28-4.52c0-3-2.76-5.17-6.7-5.17c-4.76,0-7.11,2.53-7.46,6.93h-4.41
					c0.23-5.76,3.76-10.63,11.98-10.63C483.39,442.59,488.21,445.7,488.21,451.99z M483.8,459.45v-2.47
					c-1.82,1.06-4.46,1.7-7.46,2.23c-5.05,0.94-7.99,2.17-7.99,5.52c0,3.29,2.82,4.7,6.05,4.7
					C479.45,469.43,483.8,465.79,483.8,459.45z"/>
				<path class="st0" d="M511.41,468.67v3.82h-4.23c-5.34,0-8.69-3.41-8.69-9.1v-16.62h-5.58v-3.64h5.58v-6.93l4.58-0.82v7.75h7.17
					v3.64h-7.17v15.98c0,4.05,1.64,5.93,4.99,5.93L511.41,468.67L511.41,468.67z"/>
				<path class="st0" d="M541.89,463.09c-0.59,5.29-4.7,9.98-12.51,9.98c-9.28,0-14.15-6.93-14.15-15.27
					c0-8.4,4.87-15.21,13.63-15.21c8.28,0,12.92,5.99,12.92,15.39v1h-21.91c0.35,6.28,4.05,10.34,9.63,10.34
					c4.41,0,7.34-2.47,8.11-6.23H541.89z M519.92,455.51h17.33c-0.41-5.17-2.76-9.22-8.28-9.22
					C523.45,446.29,520.57,450.23,519.92,455.51z"/>
				<path class="st0" d="M598.22,431.37v41.11h-6.17l-21.67-35.48v35.48h-4.82v-41.11h6.23l21.61,35.42v-35.42H598.22z"/>
				<path class="st0" d="M607.5,432.67h5.4v5.17h-5.4V432.67z M607.91,472.49v-29.37h4.58v29.37H607.91z"/>
				<path class="st0" d="M646.08,443.12v29.31c0,8.63-4.41,13.57-12.92,13.57c-8.46,0-12.1-5.11-12.45-10.75H625
					c0.29,3.17,2.11,6.93,8.28,6.93c6.7,0,8.34-4.35,8.34-10.1v-4.29c-0.76,1.76-3.47,5.29-9.28,5.29
					c-7.69,0-12.45-6.05-12.45-15.04c0-9.57,5.52-15.51,12.75-15.51c4.23,0,7.58,2.06,8.99,5.11v-4.52L646.08,443.12L646.08,443.12z
					 M641.62,457.75c0-6.99-2.88-11.28-8.34-11.28c-6.05,0-8.81,5.46-8.81,11.86c0,6.46,2.82,10.92,8.46,10.92
					C638.51,469.26,641.62,464.97,641.62,457.75z"/>
				<path class="st0" d="M679.86,453.75v18.74h-4.64V455.4c0-6.23-1.59-9.05-5.64-9.05c-5.11,0-10.16,6.34-10.16,17.03v9.1h-4.52
					v-41.7h4.52v21.56c1.76-5.4,5.05-9.81,11.34-9.81C676.45,442.53,679.86,446.12,679.86,453.75z"/>
				<path class="st0" d="M703.23,468.67v3.82H699c-5.34,0-8.69-3.41-8.69-9.1v-16.62h-5.58v-3.64h5.58v-6.93l4.58-0.82v7.75h7.17
					v3.64h-7.17v15.98c0,4.05,1.64,5.93,4.99,5.93L703.23,468.67L703.23,468.67z"/>
				<path class="st0" d="M751.75,435.72H738v36.77h-4.93v-36.77h-13.74v-4.35h32.42V435.72L751.75,435.72z"/>
				<path class="st0" d="M775.12,451.99v20.5h-4.41v-5.46c-1.12,2.29-4.29,6.05-10.28,6.05c-5.29,0-9.63-2.88-9.63-8.34
					c0-5.29,3.7-7.58,11.63-8.75c5.58-0.88,8.28-1.41,8.28-4.52c0-3-2.76-5.17-6.7-5.17c-4.76,0-7.11,2.53-7.46,6.93h-4.41
					c0.23-5.76,3.76-10.63,11.98-10.63C770.31,442.59,775.12,445.7,775.12,451.99z M770.72,459.45v-2.47
					c-1.82,1.06-4.46,1.7-7.46,2.23c-5.05,0.94-7.99,2.17-7.99,5.52c0,3.29,2.82,4.7,6.05,4.7
					C766.37,469.43,770.72,465.79,770.72,459.45z"/>
				<path class="st0" d="M783.58,472.49v-41.7h4.64v41.7H783.58z"/>
				<path class="st0" d="M804.73,459.27l-3.41,3.58v9.63h-4.35v-41.7h4.35v26.2l13.27-13.86h5.52l-12.45,13.04l13.16,16.33h-5.34
					L804.73,459.27z"/>
				<path class="st0" d="M882.37,452.58v19.91h-4.52V455.1c0-5.7-1.7-8.52-5.7-8.52c-4.93,0-8.58,5.81-8.58,14.45v11.45h-4.46V455.1
					c0-5.7-1.76-8.52-5.7-8.52c-4.93,0-8.58,5.29-8.58,14.45v11.45h-4.52v-29.37h4.52v7.34c1.12-3.52,4.05-7.87,9.63-7.87
					c4.82,0,7.81,2.94,8.75,8.16c1.7-5.05,5.29-8.16,10.04-8.16C879.2,442.59,882.37,446.82,882.37,452.58z"/>
				<path class="st0" d="M890.65,432.67h5.4v5.17h-5.4V432.67z M891.06,472.49v-29.37h4.58v29.37H891.06z"/>
				<path class="st0" d="M920.14,468.67v3.82h-4.23c-5.34,0-8.69-3.41-8.69-9.1v-16.62h-5.58v-3.64h5.58v-6.93l4.58-0.82v7.75h7.17
					v3.64h-7.17v15.98c0,4.05,1.64,5.93,4.99,5.93L920.14,468.67L920.14,468.67z"/>
				<path class="st0" d="M966.48,468.08v4.41h-26.02v-41.11h5.11v36.71H966.48z"/>
				<path class="st0" d="M996.96,451.99v20.5h-4.41v-5.46c-1.12,2.29-4.29,6.05-10.28,6.05c-5.29,0-9.63-2.88-9.63-8.34
					c0-5.29,3.7-7.58,11.63-8.75c5.58-0.88,8.28-1.41,8.28-4.52c0-3-2.76-5.17-6.7-5.17c-4.76,0-7.11,2.53-7.46,6.93H974
					c0.23-5.76,3.76-10.63,11.98-10.63C992.15,442.59,996.96,445.7,996.96,451.99z M992.56,459.45v-2.47
					c-1.82,1.06-4.46,1.7-7.46,2.23c-5.05,0.94-7.99,2.17-7.99,5.52c0,3.29,2.82,4.7,6.05,4.7
					C988.21,469.43,992.56,465.79,992.56,459.45z"/>
				<path class="st0" d="M1030.5,443.12v29.37h-4.58v-9.22c-1.76,5.4-5.05,9.81-11.28,9.81c-5.7,0-9.1-3.58-9.1-11.22v-18.74h4.58
					v17.09c0,6.17,1.64,9.05,5.64,9.05c5.17,0,10.16-6.34,10.16-17.09v-9.05H1030.5z"/>
				<path class="st0" d="M1058.05,443.12V447h-3.7c-4.99,0-9.81,2.88-9.81,13.27v12.22h-4.58v-29.37h4.58v7.34
					c1.59-4.41,4.23-7.34,9.81-7.34H1058.05z"/>
				<path class="st0" d="M1085.36,451.99v20.5h-4.41v-5.46c-1.12,2.29-4.29,6.05-10.28,6.05c-5.29,0-9.63-2.88-9.63-8.34
					c0-5.29,3.7-7.58,11.63-8.75c5.58-0.88,8.28-1.41,8.28-4.52c0-3-2.76-5.17-6.7-5.17c-4.76,0-7.11,2.53-7.46,6.93h-4.41
					c0.23-5.76,3.76-10.63,11.98-10.63C1080.54,442.59,1085.36,445.7,1085.36,451.99z M1080.95,459.45v-2.47
					c-1.82,1.06-4.46,1.7-7.46,2.23c-5.05,0.94-7.99,2.17-7.99,5.52c0,3.29,2.82,4.7,6.05,4.7
					C1076.61,469.43,1080.95,465.79,1080.95,459.45z"/>
				<path class="st0" d="M1160.71,431.37l-9.57,41.11h-5.4l-11.57-36.3l-11.51,36.3h-5.46l-9.57-41.11h4.93l7.64,35.06l11.16-35.06
					h5.7l11.1,35.06l7.64-35.06H1160.71z"/>
				<path class="st0" d="M1167.29,432.67h5.4v5.17h-5.4V432.67z M1167.7,472.49v-29.37h4.58v29.37H1167.7z"/>
				<path class="st0" d="M1196.78,468.67v3.82h-4.23c-5.34,0-8.69-3.41-8.69-9.1v-16.62h-5.58v-3.64h5.58v-6.93l4.58-0.82v7.75h7.17
					v3.64h-7.17v15.98c0,4.05,1.64,5.93,4.99,5.93L1196.78,468.67L1196.78,468.67z"/>
				<path class="st0" d="M1219.39,468.67v3.82h-4.23c-5.34,0-8.69-3.41-8.69-9.1v-16.62h-5.58v-3.64h5.58v-6.93l4.58-0.82v7.75h7.17
					v3.64h-7.17v15.98c0,4.05,1.64,5.93,4.99,5.93L1219.39,468.67L1219.39,468.67z"/>
				<path class="st0" d="M1224.56,432.67h5.4v5.17h-5.4V432.67z M1224.97,472.49v-29.37h4.58v29.37H1224.97z"/>
				<path class="st0" d="M1263.15,443.12v29.31c0,8.63-4.41,13.57-12.92,13.57c-8.46,0-12.1-5.11-12.45-10.75h4.29
					c0.29,3.17,2.11,6.93,8.28,6.93c6.7,0,8.34-4.35,8.34-10.1v-4.29c-0.76,1.76-3.47,5.29-9.28,5.29
					c-7.69,0-12.45-6.05-12.45-15.04c0-9.57,5.52-15.51,12.75-15.51c4.23,0,7.58,2.06,8.99,5.11v-4.52L1263.15,443.12
					L1263.15,443.12z M1258.68,457.75c0-6.99-2.88-11.28-8.34-11.28c-6.05,0-8.81,5.46-8.81,11.86c0,6.46,2.82,10.92,8.46,10.92
					C1255.57,469.26,1258.68,464.97,1258.68,457.75z"/>
			</g>
		</g>
		<g>
			<g>
				<g>
					<path class="st0" d="M315.92,472.57c-11.45,0-20.77-9.32-20.77-20.77s9.32-20.77,20.77-20.77s20.77,9.32,20.77,20.77
						S327.37,472.57,315.92,472.57z M315.92,433.12c-10.3,0-18.68,8.38-18.68,18.68s8.38,18.68,18.68,18.68
						c10.3,0,18.68-8.38,18.68-18.68S326.22,433.12,315.92,433.12z"/>
				</g>
				<polygon class="st0" points="325.81,451.79 309.16,442.18 309.16,461.39 				"/>
			</g>
			<g>
				<g>
					<path class="st0" d="M315.92,401.65c-11.45,0-20.77-9.32-20.77-20.77s9.32-20.77,20.77-20.77s20.77,9.32,20.77,20.77
						S327.37,401.65,315.92,401.65z M315.92,362.2c-10.3,0-18.68,8.38-18.68,18.68s8.38,18.68,18.68,18.68
						c10.3,0,18.68-8.38,18.68-18.68S326.22,362.2,315.92,362.2z"/>
				</g>
				<polygon class="st0" points="325.81,380.88 309.16,371.27 309.16,390.48 				"/>
			</g>
			<g>
				<g>
					<path class="st0" d="M315.92,331.6c-11.45,0-20.77-9.32-20.77-20.77s9.32-20.77,20.77-20.77s20.77,9.32,20.77,20.77
						S327.37,331.6,315.92,331.6z M315.92,292.15c-10.3,0-18.68,8.38-18.68,18.68s8.38,18.68,18.68,18.68
						c10.3,0,18.68-8.38,18.68-18.68C334.6,300.53,326.22,292.15,315.92,292.15z"/>
				</g>
				<polygon class="st0" points="325.81,310.83 309.16,301.22 309.16,320.42 				"/>
			</g>
			<g>
				<g>
					<path class="st0" d="M315.92,261.55c-11.45,0-20.77-9.32-20.77-20.77s9.32-20.77,20.77-20.77s20.77,9.32,20.77,20.77
						S327.37,261.55,315.92,261.55z M315.92,222.1c-10.3,0-18.68,8.38-18.68,18.68s8.38,18.68,18.68,18.68
						c10.3,0,18.68-8.38,18.68-18.68S326.22,222.1,315.92,222.1z"/>
				</g>
				<polygon class="st0" points="325.81,240.78 309.16,231.17 309.16,250.39 				"/>
			</g>
		</g>
	</g>
</g>
</svg>
